<svg width="17" height="17" viewBox="0 0 17 17" fill="none" xmlns="http://www.w3.org/2000/svg">
<g id="communication/call_24px">
<path id="icon/communication/call_24px" fill-rule="evenodd" clip-rule="evenodd" d="M13.557 10.5601L11.8364 10.3637C11.4231 10.3162 11.0167 10.4585 10.7254 10.7498L9.47894 11.9962C7.56184 11.0208 5.99023 9.45591 5.01475 7.53204L6.26797 6.27882C6.55926 5.98753 6.70152 5.58107 6.6541 5.16785L6.45765 3.46075C6.37636 2.77656 5.80055 2.26172 5.10958 2.26172H3.93765C3.17217 2.26172 2.53539 2.89849 2.58281 3.66398C2.94184 9.44914 7.56862 14.0691 13.347 14.4282C14.1125 14.4756 14.7493 13.8388 14.7493 13.0733V11.9014C14.756 11.2172 14.2412 10.6414 13.557 10.5601ZM4.97839 3.61656C5.01903 4.21946 5.12064 4.80882 5.28323 5.37107L4.47032 6.18398C4.19258 5.37107 4.01645 4.51075 3.95548 3.61656H4.97839ZM13.419 12.064C12.8229 12.0233 12.2335 11.9217 11.6577 11.7591L10.8448 12.5653C11.6645 12.8362 12.5248 13.0124 13.419 13.0733V12.064Z" fill="white"/>
</g>
</svg>
