<svg width="37" height="36" viewBox="0 0 37 36" fill="none" xmlns="http://www.w3.org/2000/svg">
<g id="clarity:wallet-solid" clip-path="url(#clip0_5_196)">
<path id="Vector" d="M33.1357 14H31.1878V9.00001C31.1878 8.7348 31.082 8.48044 30.8937 8.29291C30.7054 8.10537 30.45 8.00001 30.1837 8.00001H6.08576C5.81946 8.00001 5.56407 7.89466 5.37577 7.70712C5.18747 7.51958 5.08168 7.26523 5.08168 7.00001C5.08168 6.7348 5.18747 6.48044 5.37577 6.29291C5.56407 6.10537 5.81946 6.00001 6.08576 6.00001H29.7821C30.0484 6.00001 30.3038 5.89466 30.4921 5.70712C30.6804 5.51958 30.7862 5.26523 30.7862 5.00001C30.7862 4.7348 30.6804 4.48044 30.4921 4.29291C30.3038 4.10537 30.0484 4.00001 29.7821 4.00001H6.08576C5.69808 3.99205 5.31262 4.06024 4.9514 4.20068C4.59019 4.34112 4.26029 4.55106 3.98056 4.81851C3.70083 5.08596 3.47675 5.40567 3.32112 5.75939C3.16548 6.11311 3.08135 6.4939 3.07352 6.88001V27.88C3.07483 28.4232 3.18373 28.9608 3.39397 29.4621C3.60422 29.9633 3.91168 30.4183 4.29875 30.801C4.68582 31.1837 5.14489 31.4866 5.64967 31.6923C6.15446 31.8981 6.69504 32.0026 7.24046 32H30.1837C30.45 32 30.7054 31.8947 30.8937 31.7071C31.082 31.5196 31.1878 31.2652 31.1878 31V26H33.1357C33.2625 26.0096 33.3898 25.9932 33.51 25.9521C33.6302 25.9109 33.7406 25.8457 33.8347 25.7605C33.9287 25.6753 34.0042 25.5719 34.0567 25.4566C34.1091 25.3413 34.1374 25.2166 34.1398 25.09V15.09C34.1431 14.8152 34.0411 14.5495 33.8545 14.3469C33.668 14.1444 33.4109 14.0204 33.1357 14ZM32.1919 24H23.5769C22.5479 23.9635 21.5755 23.5218 20.8732 22.7718C20.171 22.0218 19.7964 21.0249 19.8316 20C19.7964 18.9751 20.171 17.9782 20.8732 17.2283C21.5755 16.4783 22.5479 16.0365 23.5769 16H32.1919V24Z" fill="#0E1800"/>
<path id="Vector_2" d="M24.1994 21.42C25.0312 21.42 25.7055 20.7485 25.7055 19.92C25.7055 19.0916 25.0312 18.42 24.1994 18.42C23.3676 18.42 22.6933 19.0916 22.6933 19.92C22.6933 20.7485 23.3676 21.42 24.1994 21.42Z" fill="#0E1800"/>
</g>
<defs>
<clipPath id="clip0_5_196">
<rect width="36.1469" height="36" fill="white" transform="translate(0.0612793)"/>
</clipPath>
</defs>
</svg>
