<svg width="285" height="123" viewBox="0 0 285 123" fill="none" xmlns="http://www.w3.org/2000/svg">
<path d="M206.68 54.8193V36.7509C206.68 34.9382 208.098 33.4763 209.857 33.4763H221.317C223.076 33.4763 224.494 34.9382 224.494 36.7509V54.8193C224.494 56.632 223.076 58.0939 221.317 58.0939H209.857C208.126 58.0647 206.68 56.6028 206.68 54.8193Z" fill="#EACC83"/>
<path d="M218.65 39.7038H212.58V41.2534H218.65V39.7038Z" fill="#3F3D56"/>
<path d="M217.119 33.4763H214.083V38.5636H217.119V33.4763Z" fill="#3F3D56"/>
<path d="M217.119 53.0067H214.083V58.0939H217.119V53.0067Z" fill="#3F3D56"/>
<path d="M200.439 55.9303H182.908C181.15 55.9303 179.731 54.4685 179.731 52.6558V40.8441C179.731 39.0314 181.15 37.5695 182.908 37.5695H200.439C202.198 37.5695 203.616 39.0314 203.616 40.8441V52.6558C203.616 54.4685 202.198 55.9303 200.439 55.9303Z" fill="#EACC83"/>
<path d="M195.106 40.1131H189.036V41.6627H195.106V40.1131Z" fill="#3F3D56"/>
<path d="M184.695 45.2004H179.76V48.3287H184.695V45.2004Z" fill="#3F3D56"/>
<path d="M203.616 45.2004H198.68V48.3287H203.616V45.2004Z" fill="#3F3D56"/>
<path d="M49.1311 89.2313L46.2093 71.6306C44.9044 63.8243 50.521 56.5736 58.2084 56.1642L99.9358 53.9422L109.892 37.014C111.226 34.7628 113.58 33.3886 116.105 33.3886H146.088C148.443 33.3886 150.428 35.2013 150.74 37.5988L151.506 51.1355L226.253 51.3694L235.67 83.3254L226.933 82.8868L227.387 92.5643L215.984 93.0321L212.183 81.9513C211.474 79.8754 208.325 77.5072 205.063 75.5484C197.744 71.1336 188.355 72.5369 182.823 79.1737C181.518 80.7233 180.611 82.3606 180.355 83.8809L178.625 94.2016L94.9149 92.8274L83.937 77.0102C80.7032 73.3848 65.3852 72.0399 64.0236 77.0102L55.7405 89.5821L49.1311 89.2313Z" fill="#ED1C24"/>
<path d="M140.103 43.7093L142.571 55.6672L111.226 56.3689L117.835 41.7212C118.431 40.4055 119.764 39.5576 121.182 39.6453L136.188 40.3178C138.117 40.4055 139.706 41.8089 140.103 43.7093Z" fill="white"/>
<path d="M106.999 55.4333L113.268 38.8267L111.623 37.1602L101.383 53.1528L103.482 56.3689L106.999 55.4333Z" fill="white"/>
<path d="M196.723 109.434C204.885 109.434 211.502 102.614 211.502 94.2016C211.502 85.7889 204.885 78.9691 196.723 78.9691C188.561 78.9691 181.944 85.7889 181.944 94.2016C181.944 102.614 188.561 109.434 196.723 109.434Z" fill="#3F3D56"/>
<path d="M186.539 94.2016C186.539 88.4126 191.106 83.7055 196.723 83.7055C202.339 83.7055 206.907 88.4126 206.907 94.2016C206.907 99.9905 202.339 104.698 196.723 104.698C191.106 104.698 186.539 99.9905 186.539 94.2016ZM186.766 94.2016C186.766 99.8735 191.22 104.464 196.723 104.464C202.226 104.464 206.68 99.8735 206.68 94.2016C206.68 88.5296 202.226 83.9394 196.723 83.9394C191.248 83.9394 186.766 88.5296 186.766 94.2016Z" fill="white"/>
<path d="M188.014 94.2016C188.014 99.1718 191.929 103.207 196.751 103.207C201.574 103.207 205.488 99.1718 205.488 94.2016C205.488 89.2313 201.574 85.1966 196.751 85.1966C191.901 85.1966 188.014 89.2313 188.014 94.2016ZM202.396 92.038L200.836 93.0905L200.24 92.155L202.396 92.038ZM200.042 97.3299L200.467 96.2774L201.772 98.0316L200.042 97.3299ZM196.099 100.897L197.177 98.9964V100.897H196.099ZM196.099 89.8745L197.177 87.9741V89.8745H196.099ZM191.248 98.0608L192.553 96.3066L192.979 97.3592L191.248 98.0608ZM190.624 92.038L192.752 92.1257L192.156 93.0613L190.624 92.038Z" fill="#E6E6E6"/>
<path d="M72.7605 109.434C80.9227 109.434 87.5395 102.614 87.5395 94.2016C87.5395 85.7889 80.9227 78.9691 72.7605 78.9691C64.5982 78.9691 57.9814 85.7889 57.9814 94.2016C57.9814 102.614 64.5982 109.434 72.7605 109.434Z" fill="#3F3D56"/>
<path d="M62.5768 94.2016C62.5768 88.4126 67.1439 83.7055 72.7605 83.7055C78.3771 83.7055 82.9441 88.4126 82.9441 94.2016C82.9441 99.9905 78.3771 104.698 72.7605 104.698C67.1439 104.698 62.5768 99.9905 62.5768 94.2016ZM62.8038 94.2016C62.8038 99.8735 67.2573 104.464 72.7605 104.464C78.2636 104.464 82.7172 99.8735 82.7172 94.2016C82.7172 88.5296 78.2636 83.9394 72.7605 83.9394C67.2573 83.9394 62.8038 88.5296 62.8038 94.2016Z" fill="white"/>
<path d="M64.0236 94.2016C64.0236 99.1718 67.9382 103.207 72.7605 103.207C77.5828 103.207 81.4974 99.1718 81.4974 94.2016C81.4974 89.2313 77.5828 85.1966 72.7605 85.1966C67.9382 85.1966 64.0236 89.2313 64.0236 94.2016ZM78.4338 92.038L76.8737 93.0905L76.278 92.155L78.4338 92.038ZM76.0794 97.3299L76.5049 96.2774L77.8098 98.0316L76.0794 97.3299ZM72.1081 100.897L73.186 98.9964V100.897H72.1081ZM72.1081 89.8745L73.186 87.9741V89.8745H72.1081ZM67.2857 98.0608L68.5906 96.3066L69.0161 97.3592L67.2857 98.0608ZM66.6333 92.038L68.7608 92.1257L68.1651 93.0613L66.6333 92.038Z" fill="#E6E6E6"/>
<path d="M142.911 59.9358H134.401V61.7778H142.911V59.9358Z" fill="#3F3D56"/>
<path d="M254.279 98.0024C254.194 97.7392 253.598 97.8562 253.541 97.6515C253.485 97.4176 254.052 97.2422 254.506 96.6282C254.591 96.5113 255.101 95.8096 254.903 95.488C254.534 94.9325 252.01 96.3359 251.385 95.5465C251.244 95.371 251.187 95.0787 250.79 94.5232C250.62 94.2893 250.534 94.2016 250.421 94.2016C250.251 94.2016 250.194 94.4355 249.91 94.8448C249.513 95.4588 249.343 95.371 249.088 95.8681C248.889 96.2482 248.861 96.482 248.719 96.482C248.52 96.5113 248.435 96.0435 248.18 96.0143C247.925 95.985 247.669 96.4528 247.556 96.8037C247.329 97.4761 247.471 97.9731 247.499 98.4702C247.528 99.0257 247.442 99.8151 246.875 100.868L241.4 109.814C242.563 107.972 245.911 103.002 247.244 101.189C247.641 100.663 248.038 100.137 248.691 100.02C249.315 99.932 250.052 100.224 251.102 100.224C251.215 100.224 251.556 100.224 251.641 100.02C251.697 99.8735 251.527 99.7274 251.612 99.5812C251.697 99.3765 252.066 99.4642 252.577 99.3473C252.946 99.2596 253.173 99.1134 253.399 98.9672C253.428 98.938 254.392 98.3532 254.279 98.0024Z" fill="#30AA49"/>
<path d="M239.982 100.107C239.84 100.078 239.727 100.4 239.585 100.371C239.471 100.341 239.528 99.9905 239.358 99.5812C239.33 99.5227 239.131 99.0549 238.932 99.0549C238.564 99.0841 238.507 100.78 237.94 100.838C237.826 100.868 237.656 100.809 237.287 100.838C237.145 100.868 237.06 100.868 237.032 100.926C236.975 101.014 237.06 101.101 237.174 101.365C237.344 101.745 237.259 101.803 237.429 102.066C237.543 102.271 237.656 102.359 237.628 102.417C237.571 102.534 237.344 102.446 237.259 102.563C237.174 102.68 237.316 102.943 237.457 103.119C237.713 103.44 237.996 103.499 238.252 103.645C238.535 103.791 238.876 104.054 239.216 104.639L241.911 109.99C241.372 108.879 239.954 105.75 239.471 104.551C239.33 104.201 239.188 103.85 239.33 103.499C239.471 103.148 239.84 102.885 240.124 102.329C240.152 102.271 240.237 102.096 240.181 102.008C240.124 101.92 240.01 101.979 239.954 101.891C239.897 101.803 240.039 101.628 240.124 101.335C240.181 101.131 240.181 100.955 240.181 100.809C240.181 100.809 240.152 100.137 239.982 100.107Z" fill="#30AA49"/>
<path d="M242.677 101.423L242.762 100.604L242.819 100.546C243.046 100.312 243.216 100.078 243.273 99.8151C243.273 99.7858 243.301 99.7274 243.301 99.6981C243.329 99.5227 243.358 99.318 243.528 99.1134C243.613 98.9964 243.84 98.7333 244.067 98.821C244.124 98.8503 244.18 98.8795 244.209 98.938L244.237 98.9087C244.351 98.821 244.407 98.7625 244.492 98.7333C244.549 98.7041 244.606 98.6748 244.691 98.5871C244.719 98.5579 244.776 98.5286 244.804 98.4994C244.889 98.4117 245.003 98.324 245.145 98.3825C245.287 98.4117 245.343 98.5871 245.4 98.6748C245.457 98.8503 245.485 98.9672 245.485 99.0549C245.485 99.0841 245.485 99.1134 245.485 99.1426C245.514 99.2303 245.939 99.2596 246.109 99.2596C246.478 99.2888 246.762 99.2888 246.847 99.5519C246.904 99.7274 246.79 99.932 246.506 100.166C246.421 100.224 246.336 100.283 246.251 100.312C246.308 100.371 246.336 100.429 246.336 100.517C246.336 100.721 246.138 100.868 245.74 100.985C245.627 101.014 245.514 101.043 245.343 101.043C245.258 101.043 245.202 101.014 245.116 101.014C245.116 101.043 245.088 101.101 245.06 101.131C244.975 101.248 244.833 101.277 244.634 101.189C244.407 101.131 244.237 101.043 244.095 100.955C243.953 100.897 243.84 100.838 243.755 100.809C243.585 100.78 243.414 100.897 243.216 101.043L242.677 101.423Z" fill="#30AA49"/>
<path d="M244.067 96.8329L243.301 96.9498L243.244 96.9206C242.961 96.7452 242.705 96.6575 242.45 96.6575C242.422 96.6575 242.365 96.6575 242.336 96.6575C242.166 96.6575 241.968 96.6867 241.741 96.599C241.599 96.5405 241.287 96.3943 241.315 96.1312C241.315 96.0727 241.344 96.0143 241.372 95.9558C241.372 95.9558 241.344 95.9558 241.344 95.9265C241.23 95.8388 241.173 95.7804 241.117 95.7219C241.088 95.6634 241.032 95.6342 240.947 95.5465C240.918 95.5172 240.861 95.488 240.833 95.4587C240.748 95.4003 240.634 95.3126 240.634 95.1664C240.634 94.991 240.776 94.9032 240.861 94.8448C241.003 94.7278 241.117 94.6986 241.202 94.6401C241.23 94.6401 241.259 94.6109 241.259 94.6109C241.344 94.5524 241.259 94.1138 241.202 93.9677C241.117 93.6168 241.06 93.2952 241.287 93.149C241.429 93.0613 241.656 93.1198 241.939 93.3245C242.024 93.3829 242.081 93.4706 242.138 93.5291C242.166 93.4706 242.223 93.4122 242.308 93.3829C242.507 93.3244 242.705 93.4999 242.904 93.8507C242.961 93.9384 243.017 94.0554 243.046 94.2308C243.074 94.3185 243.074 94.377 243.074 94.4647C243.102 94.4647 243.159 94.4647 243.187 94.4939C243.301 94.5524 243.358 94.6986 243.358 94.9032C243.358 95.1371 243.329 95.3126 243.301 95.488C243.273 95.6342 243.244 95.7511 243.273 95.8681C243.301 96.0435 243.443 96.1897 243.641 96.3359L244.067 96.8329Z" fill="#30AA49"/>
<path d="M244.18 94.4062L244.265 93.5876L244.322 93.5291C244.549 93.2952 244.719 93.0613 244.776 92.7982C244.776 92.769 244.804 92.7105 244.804 92.6812C244.833 92.5058 244.861 92.3012 245.031 92.0965C245.116 91.9796 245.343 91.7164 245.57 91.8041C245.627 91.8334 245.684 91.8626 245.712 91.9211L245.74 91.8918C245.854 91.8041 245.911 91.7457 245.996 91.7164C246.053 91.6872 246.109 91.658 246.194 91.5702C246.223 91.541 246.279 91.5118 246.308 91.4825C246.393 91.3948 246.506 91.3071 246.648 91.3656C246.79 91.3948 246.847 91.5702 246.904 91.658C246.96 91.8334 246.989 91.9503 246.989 92.038C246.989 92.0673 246.989 92.0965 246.989 92.1257C247.017 92.2135 247.442 92.2427 247.613 92.2427C247.981 92.2719 248.265 92.2719 248.35 92.5351C248.407 92.7105 248.293 92.9151 248.01 93.149C247.925 93.2075 247.84 93.266 247.755 93.2952C247.811 93.3537 247.84 93.4122 247.84 93.4999C247.84 93.7045 247.641 93.8507 247.244 93.9677C247.13 93.9969 247.017 94.0262 246.847 94.0262C246.762 94.0262 246.705 93.9969 246.62 93.9969C246.62 94.0261 246.591 94.0846 246.563 94.1139C246.478 94.2308 246.336 94.26 246.138 94.1723C245.911 94.1139 245.74 94.0261 245.599 93.9384C245.457 93.88 245.343 93.8215 245.258 93.7922C245.088 93.763 244.918 93.88 244.719 94.0262L244.18 94.4062Z" fill="#30AA49"/>
<path d="M241.656 109.843L241.514 109.697L241.315 109.668C241.315 109.639 241.315 109.609 241.315 109.551C241.315 109.171 241.287 108.06 241.429 106.306C241.542 105.107 241.712 103.879 241.968 102.651C242.223 101.423 242.478 100.546 242.677 99.8151C242.819 99.2596 242.989 98.7333 243.131 98.2363C243.528 96.8914 243.925 95.605 244.152 94.1431C244.209 93.8215 244.322 93.149 244.095 92.3304C243.953 91.8626 243.755 91.4241 243.443 91.044L243.755 90.7809C244.095 91.2194 244.351 91.7164 244.492 92.2135C244.748 93.0906 244.634 93.8507 244.577 94.2016C244.351 95.6927 243.953 96.9791 243.528 98.3532C243.386 98.8503 243.216 99.3765 243.074 99.932C242.875 100.663 242.62 101.54 242.365 102.739C242.11 103.937 241.939 105.136 241.854 106.335C241.712 108.06 241.712 109.171 241.741 109.522C241.712 109.756 241.712 109.785 241.656 109.843Z" fill="#30AA49"/>
<path d="M242.62 91.541C242.592 91.541 242.592 91.541 242.563 91.541C242.251 91.4533 241.996 91.1902 241.798 90.7516C241.712 90.547 241.684 90.3423 241.656 89.9037C241.656 89.8453 241.627 89.4944 241.656 89.0559C241.684 88.7635 241.712 88.6465 241.798 88.5588C241.883 88.4711 241.996 88.4126 242.11 88.3834C242.11 88.3542 242.138 88.2957 242.138 88.2665C242.251 88.1203 242.393 88.1788 242.507 88.208C242.563 88.2372 242.62 88.2372 242.677 88.2665C242.79 88.2957 242.847 88.2665 242.932 88.2372C243.017 88.208 243.131 88.1788 243.273 88.1788C243.556 88.1788 243.783 88.3249 243.868 88.3542C244.237 88.5881 244.379 88.9682 244.521 89.4067C244.549 89.4944 244.663 89.816 244.663 90.1961C244.691 90.4885 244.634 90.6054 244.606 90.6931C244.521 90.8686 244.379 90.9563 244.067 91.1317C243.726 91.3071 243.556 91.3948 243.414 91.4533C243.074 91.5118 242.847 91.5995 242.62 91.541Z" fill="#30AA49"/>
<path d="M30.0687 109.522C30.0687 109.668 30.2672 109.785 30.5225 109.785H252.492C252.747 109.785 252.946 109.668 252.946 109.522C252.946 109.376 252.747 109.259 252.492 109.259H30.5509C30.2956 109.229 30.0687 109.346 30.0687 109.522Z" fill="#CCCCCC"/>
<path d="M160.016 107.768H163.108L164.612 95.4295H160.016V107.768Z" fill="#CF9E76"/>
<path d="M170.654 107.709C170.739 107.884 170.796 108.411 170.796 108.615C170.796 109.229 170.314 109.697 169.746 109.697H160.13C159.733 109.697 159.421 109.376 159.421 108.966V108.557C159.421 108.557 158.939 107.329 159.931 105.779C159.931 105.779 161.151 106.978 162.967 105.107L163.506 104.113L167.392 107.037L169.548 107.3C170.002 107.358 170.427 107.27 170.654 107.709Z" fill="#2F2E41"/>
<path d="M146.06 107.768H149.152L150.627 95.4295H146.06V107.768Z" fill="#CF9E76"/>
<path d="M156.698 107.709C156.783 107.884 156.839 108.411 156.839 108.615C156.839 109.229 156.357 109.697 155.79 109.697H146.173C145.776 109.697 145.464 109.376 145.464 108.966V108.557C145.464 108.557 144.982 107.329 145.975 105.779C145.975 105.779 147.195 106.978 149.01 105.107L149.549 104.113L153.435 107.037L155.591 107.3C156.045 107.358 156.442 107.27 156.698 107.709Z" fill="#2F2E41"/>
<path d="M159.534 23.4188L160.101 29.0908L153.237 28.4768L154.4 23.2142L159.534 23.4188Z" fill="#FFB6B6"/>
<path d="M159.534 23.4188L160.101 29.0908L153.237 28.4768L154.4 23.2142L159.534 23.4188Z" fill="#B08874"/>
<path d="M157.066 24.1205C159.557 24.1205 161.577 22.0392 161.577 19.4718C161.577 16.9044 159.557 14.8232 157.066 14.8232C154.575 14.8232 152.556 16.9044 152.556 19.4718C152.556 22.0392 154.575 24.1205 157.066 24.1205Z" fill="#CF9E76"/>
<path d="M160.016 26.7811L167.59 31.342L165.094 43.68L166.796 60.3159L165.605 101.043L158.343 100.224L157.35 65.5785L151.648 101.452H144.585L145.748 62.7426L149.294 46.3114L147.138 28.4768L153.719 26.3717L160.016 26.7811Z" fill="#2F2E41"/>
<path d="M161.633 19.004C162.342 19.0333 163.335 17.2498 163.25 15.671C163.137 12.8935 159.676 9.53125 156.017 10.0868C152.386 10.613 149.748 14.7647 150.599 17.7468C150.741 18.3023 151.194 19.3841 152.641 20.3489C152.953 19.121 153.294 18.1269 153.577 17.396C154.145 15.9342 154.4 15.671 154.683 15.5248C155.364 15.2032 155.705 15.7587 157.038 15.788C158.485 15.788 158.995 15.1155 159.563 15.5248C159.988 15.8172 159.818 16.2265 160.357 17.3668C160.697 18.0685 161.123 18.9748 161.633 19.004Z" fill="#2F2E41"/>
<path d="M163.676 56.6613C162.74 57.6846 162.484 59.0295 163.108 59.6435C163.732 60.2574 165.037 59.9358 165.973 58.8833C166.371 58.474 166.654 57.977 166.796 57.4507L170.739 53.0359L168.697 51.1647L165.009 55.7257C164.527 55.9304 164.045 56.252 163.676 56.6613Z" fill="#FFB6B6"/>
<path d="M167.505 31.2251L174.171 42.9199L175.164 48.2703L168.725 56.6613L166.03 53.0944L169.236 48.2703L164.044 38.8559L167.505 31.2251Z" fill="#2F2E41"/>
<path d="M148.783 55.5795V41.7796C148.783 39.6746 150.457 37.9788 152.471 37.9788H172.923C174.966 37.9788 176.611 39.7038 176.611 41.7796V55.5795C176.611 57.6846 174.937 59.3803 172.923 59.3803H152.471C150.428 59.4095 148.783 57.6846 148.783 55.5795Z" fill="#EACC83"/>
<path d="M165.775 44.8495H158.712V46.6622H165.775V44.8495Z" fill="#3F3D56"/>
<path d="M165.236 55.638H159.477V59.2926H165.236V55.638Z" fill="#3F3D56"/>
<path d="M165.491 38.0958H159.733V41.7504H165.491V38.0958Z" fill="#3F3D56"/>
<path d="M150.854 54.0299C151.79 55.0532 152.045 56.3981 151.421 57.0121C150.797 57.6261 149.492 57.3045 148.556 56.2519C148.159 55.8426 147.875 55.3456 147.734 54.8193L143.791 50.4046L145.833 48.5334L149.521 53.0944C150.003 53.299 150.457 53.6206 150.854 54.0299Z" fill="#CF9E76"/>
<path d="M147.024 28.5938L140.358 40.2886L139.365 45.6389L145.776 54.0299L148.5 50.463L145.294 45.6389L150.457 36.2246L147.024 28.5938Z" fill="#2F2E41"/>
<path d="M47.0036 84.3779C50.3406 84.3779 53.0457 81.9563 53.0457 78.9691C53.0457 75.9819 50.3406 73.5602 47.0036 73.5602C43.6666 73.5602 40.9615 75.9819 40.9615 78.9691C40.9615 81.9563 43.6666 84.3779 47.0036 84.3779Z" fill="#E6E6E6"/>
<path d="M119.197 77.8873C119.424 77.8873 119.622 77.8873 119.849 77.8873C119.906 77.9166 119.963 77.8873 119.991 77.8581C120.019 77.8581 120.048 77.8581 120.076 77.8581C120.133 77.8873 120.161 77.8581 120.161 77.8288C120.19 77.8288 120.19 77.8288 120.218 77.8288C120.246 77.8581 120.275 77.8581 120.275 77.7996C120.303 77.7996 120.331 77.7704 120.331 77.7704C120.36 77.7996 120.388 77.7996 120.388 77.7411C120.7 77.5949 121.012 77.4195 121.268 77.1564C121.438 76.981 121.608 76.8055 121.75 76.6009C121.863 76.4547 122.005 76.3085 122.119 76.1331C122.204 76.0161 122.317 75.8992 122.402 75.7823C122.431 75.7238 122.459 75.7238 122.516 75.7823C122.743 76.1039 123.026 76.3962 123.282 76.7178C123.282 76.7471 123.31 76.7763 123.338 76.8056C123.594 77.0979 123.849 77.3903 124.104 77.7119C124.189 77.8288 124.189 77.8288 124.076 78.0043C123.991 78.1212 123.877 78.2382 123.792 78.3551C123.764 78.3551 123.764 78.3843 123.764 78.4136C123.594 78.589 123.452 78.7937 123.253 78.9691C123.196 78.9691 123.168 78.9983 123.168 79.0568C122.913 79.2907 122.658 79.5246 122.374 79.7293C122.232 79.8462 122.09 79.9339 121.92 80.0216C121.835 80.0216 121.75 80.0801 121.693 80.1386C121.381 80.314 121.069 80.4309 120.757 80.4894C120.7 80.4602 120.672 80.4894 120.643 80.5186C120.615 80.5186 120.587 80.5186 120.558 80.5186C120.53 80.4894 120.502 80.4894 120.473 80.5479C120.36 80.5771 120.246 80.6064 120.105 80.6064C119.792 80.6356 119.48 80.6941 119.168 80.6356C119.168 80.6064 119.14 80.6064 119.112 80.6356C119.055 80.6356 119.027 80.6356 118.97 80.6356C118.97 80.6064 118.941 80.6064 118.913 80.6356C118.828 80.6356 118.743 80.6356 118.658 80.6064C118.629 80.5479 118.573 80.5479 118.516 80.5771C118.488 80.5771 118.459 80.5771 118.431 80.5771C118.403 80.5479 118.374 80.5186 118.317 80.5479C118.147 80.5186 118.005 80.4894 117.835 80.4309C117.807 80.4309 117.778 80.4309 117.75 80.4017C117.722 80.4017 117.693 80.4017 117.665 80.4017C117.552 80.314 117.438 80.2847 117.325 80.2263C117.268 80.1678 117.211 80.1386 117.154 80.1386C117.154 80.1386 117.154 80.1386 117.126 80.1386C117.126 80.0801 117.098 80.0801 117.069 80.1093C117.069 80.1093 117.041 80.1093 117.041 80.0801C117.041 80.0509 117.013 80.0509 116.984 80.0509C116.757 79.9339 116.559 79.817 116.36 79.6708C116.162 79.4954 115.935 79.3492 115.736 79.1445C115.736 79.1153 115.708 79.086 115.679 79.086C115.424 78.8229 115.197 78.5013 114.97 78.2089C114.97 78.1797 114.97 78.1504 114.942 78.1504C114.857 78.0335 114.8 77.8873 114.715 77.7704C114.715 77.7119 114.686 77.6534 114.63 77.5949C114.545 77.3611 114.46 77.1564 114.374 76.8933V76.864C114.374 76.7763 114.346 76.7178 114.289 76.6594C114.289 76.6301 114.289 76.6009 114.289 76.5717C114.318 76.5132 114.318 76.4547 114.261 76.4255C114.233 76.2208 114.204 76.0454 114.176 75.8407C114.176 75.8407 114.176 75.8407 114.204 75.8407C114.204 75.8407 114.204 75.8407 114.176 75.8407C114.176 75.4899 114.148 75.1098 114.176 74.759C114.204 74.4081 114.289 74.0865 114.374 73.7357C114.431 73.5018 114.516 73.2971 114.601 73.0632V73.034C114.63 73.034 114.658 73.034 114.63 72.9755C114.658 72.9463 114.658 72.8878 114.686 72.8586C114.715 72.8586 114.715 72.8293 114.715 72.8001C114.715 72.8001 114.715 72.7708 114.743 72.7708C114.772 72.7708 114.772 72.7416 114.772 72.7124C114.857 72.5662 114.97 72.3908 115.055 72.2446C115.14 72.1276 115.225 72.0107 115.311 71.923C115.452 71.7183 115.651 71.5429 115.821 71.3675C115.935 71.2505 116.048 71.1628 116.162 71.0751C116.388 70.9289 116.615 70.7827 116.842 70.6073C116.871 70.6365 116.871 70.6073 116.899 70.5781C116.899 70.5781 116.927 70.5781 116.927 70.5488C116.984 70.5488 117.041 70.5196 117.069 70.4904C117.154 70.4611 117.239 70.4026 117.353 70.3734C117.381 70.4026 117.41 70.3734 117.438 70.3442H117.466C117.495 70.3734 117.523 70.3442 117.552 70.3149C117.58 70.3149 117.608 70.3149 117.637 70.2857C117.665 70.3149 117.693 70.2857 117.693 70.2565C117.722 70.2565 117.722 70.2565 117.75 70.2565C117.778 70.2857 117.807 70.2565 117.807 70.2272C117.835 70.2272 117.835 70.2272 117.864 70.2272C117.92 70.2565 117.949 70.2272 117.977 70.198C118.005 70.198 118.034 70.198 118.062 70.198C118.119 70.2272 118.147 70.198 118.147 70.1688C118.403 70.1103 118.658 70.081 118.913 70.0518C118.941 70.0518 118.97 70.0518 118.998 70.0226C119.509 69.9933 120.048 70.0226 120.558 70.1395C120.814 70.1395 121.041 70.2565 121.268 70.3442C121.75 70.4904 122.175 70.7827 122.572 71.0751C122.601 71.0751 122.601 71.1043 122.629 71.1043C122.629 71.1336 122.658 71.1336 122.686 71.1336L122.714 71.1628C122.743 71.2213 122.799 71.2798 122.856 71.309C123.083 71.5137 123.282 71.7476 123.452 71.9522C123.707 72.2446 123.962 72.5077 124.189 72.8293C124.218 72.8878 124.274 72.917 124.303 72.9463C124.303 72.9755 124.303 73.0047 124.331 73.0047C124.331 73.034 124.36 73.0632 124.388 73.0925C124.473 73.1802 124.53 73.2679 124.615 73.3556C124.615 73.4141 124.672 73.4433 124.7 73.4725C124.898 73.7064 125.097 73.9696 125.324 74.2035C125.494 74.4081 125.664 74.6128 125.835 74.7882C126.033 75.0221 126.232 75.256 126.43 75.4899C126.629 75.7238 126.827 75.9577 127.026 76.2208C127.083 76.3085 127.168 76.3962 127.253 76.4547C127.281 76.5424 127.338 76.6009 127.395 76.6301C127.395 76.6594 127.395 76.6886 127.423 76.6886C127.451 76.7178 127.48 76.7471 127.537 76.8056C127.537 76.8348 127.537 76.864 127.565 76.864C127.565 76.8933 127.593 76.9225 127.622 76.9517C127.82 77.1856 128.019 77.4195 128.274 77.5657C128.615 77.7996 128.983 77.9458 129.409 78.0043C129.466 78.0043 129.522 78.0043 129.579 78.0043C129.692 78.0627 129.834 78.0627 129.948 78.0043C130.231 77.975 130.487 77.9166 130.77 77.7996C131.082 77.6534 131.366 77.478 131.593 77.2149C131.905 76.8933 132.104 76.5132 132.245 76.1039C132.274 76.0161 132.331 75.8992 132.302 75.8115C132.359 75.753 132.387 75.7238 132.331 75.6653C132.359 75.4606 132.359 75.256 132.331 75.0513C132.331 74.9929 132.331 74.9636 132.302 74.9344C132.274 74.8759 132.302 74.8174 132.274 74.7882C132.274 74.759 132.274 74.759 132.245 74.7297C132.245 74.7005 132.245 74.6713 132.245 74.642C132.274 74.6128 132.245 74.5835 132.217 74.5543C132.189 74.3789 132.075 74.2035 131.99 74.0573C131.905 73.8819 131.792 73.7357 131.678 73.5895C131.678 73.5602 131.678 73.531 131.65 73.531C131.621 73.4433 131.565 73.3848 131.48 73.3556L131.451 73.3263C131.451 73.2971 131.423 73.2679 131.366 73.2679C131.309 73.2386 131.281 73.1509 131.196 73.1509C131.111 73.034 130.997 72.9755 130.855 72.9463C130.629 72.8586 130.402 72.7708 130.146 72.7708C130.146 72.7416 130.118 72.7416 130.09 72.7416C129.891 72.7124 129.692 72.7124 129.494 72.7124C129.466 72.7124 129.409 72.7124 129.38 72.7708C129.267 72.7416 129.153 72.8001 129.068 72.8001C129.012 72.7708 128.983 72.8001 128.955 72.8293C128.927 72.8293 128.927 72.8293 128.898 72.8293C128.87 72.8001 128.841 72.8001 128.841 72.8586C128.529 72.9755 128.274 73.1509 128.019 73.3556C127.99 73.3556 127.99 73.3848 127.962 73.4141L127.934 73.4433C127.877 73.4433 127.849 73.5018 127.82 73.5602C127.593 73.8234 127.366 74.0573 127.168 74.3496C127.026 74.5251 126.884 74.6712 126.742 74.8174C126.714 74.8467 126.686 74.8759 126.629 74.8174C126.487 74.642 126.317 74.4666 126.175 74.2912C126.09 74.2035 126.005 74.1157 125.948 74.028C125.693 73.7357 125.466 73.4433 125.211 73.1509C125.211 73.0925 125.182 73.0925 125.154 73.0632C125.154 73.034 125.125 73.034 125.125 73.0047C125.097 72.9755 125.097 72.9755 125.069 72.9463C124.955 72.8293 124.955 72.8293 125.069 72.6831C125.239 72.4785 125.352 72.2738 125.523 72.0984C125.608 72.0107 125.664 71.923 125.749 71.8353C125.806 71.806 125.835 71.7768 125.863 71.7183C125.891 71.6891 125.92 71.6598 125.92 71.6598C125.948 71.6598 125.976 71.6306 125.976 71.6014C126.005 71.5721 126.005 71.5721 126.033 71.5429C126.062 71.5429 126.09 71.5429 126.09 71.5137C126.147 71.4552 126.232 71.3967 126.288 71.3382C126.317 71.3382 126.345 71.3382 126.345 71.309C126.402 71.2505 126.459 71.2213 126.515 71.1628C126.515 71.1628 126.544 71.1628 126.544 71.1336C126.6 71.0751 126.686 71.0459 126.742 70.9874C126.771 70.9874 126.799 70.9874 126.799 70.9582C126.969 70.8412 127.168 70.695 127.366 70.6073C127.395 70.6073 127.423 70.5781 127.451 70.5488C127.48 70.5488 127.48 70.5488 127.508 70.5488C127.537 70.5488 127.537 70.5196 127.565 70.5196C127.593 70.5196 127.622 70.5196 127.65 70.4904C127.65 70.4904 127.678 70.4904 127.678 70.4611C127.735 70.4611 127.764 70.4611 127.792 70.4027C127.934 70.3442 128.104 70.2857 128.246 70.2565C128.302 70.2857 128.331 70.2565 128.359 70.2272C128.388 70.2272 128.416 70.2272 128.444 70.2272C128.501 70.2565 128.501 70.2272 128.529 70.198C128.558 70.198 128.586 70.198 128.643 70.198C128.728 70.2272 128.785 70.1688 128.87 70.1688C128.983 70.1688 129.097 70.1395 129.182 70.1103C129.38 70.1103 129.579 70.0518 129.778 70.0518C129.948 70.0518 130.09 70.081 130.26 70.081C130.26 70.1103 130.288 70.1103 130.345 70.1103C130.543 70.1103 130.742 70.1395 130.969 70.198C130.997 70.198 130.997 70.198 131.026 70.1688C131.054 70.1688 131.111 70.1395 131.139 70.198C131.168 70.2272 131.168 70.2272 131.224 70.2272C131.253 70.2272 131.253 70.2272 131.281 70.2272C131.309 70.2565 131.338 70.2857 131.366 70.2565C131.394 70.2565 131.394 70.2565 131.423 70.2565C131.423 70.2857 131.451 70.2857 131.48 70.2857C131.621 70.3442 131.763 70.3734 131.905 70.4319C132.16 70.5488 132.387 70.6658 132.614 70.812C132.926 71.0166 133.21 71.2213 133.494 71.4844C133.721 71.7183 133.947 71.9814 134.146 72.2738C134.373 72.6247 134.572 72.9755 134.742 73.3556C134.827 73.531 134.855 73.7064 134.912 73.8819C134.969 74.028 134.969 74.1742 135.025 74.3204C135.082 74.4666 135.082 74.642 135.11 74.8174C135.082 74.9051 135.11 75.0221 135.167 75.0806C135.167 75.3145 135.167 75.5191 135.167 75.753C135.11 75.8407 135.082 75.9284 135.139 76.0162C135.11 76.1623 135.11 76.3085 135.082 76.4255C134.997 76.5424 134.997 76.6594 134.997 76.7763C134.997 76.9517 134.912 77.1272 134.855 77.2733C134.713 77.6827 134.515 78.0627 134.288 78.4136C134.146 78.6475 133.976 78.8521 133.806 79.0568C133.749 79.086 133.692 79.1153 133.692 79.203C133.664 79.203 133.635 79.203 133.664 79.2322C133.635 79.2322 133.607 79.2322 133.635 79.2615C133.607 79.2615 133.579 79.2615 133.579 79.2907C133.522 79.3199 133.465 79.3492 133.437 79.4076C133.408 79.4076 133.408 79.4369 133.38 79.4369L133.352 79.4661C133.323 79.4661 133.295 79.4661 133.295 79.4953C132.87 79.8754 132.359 80.1678 131.82 80.3725C131.735 80.4017 131.678 80.4017 131.621 80.4602H131.593C131.536 80.4309 131.508 80.4602 131.48 80.5186C131.366 80.5479 131.253 80.5771 131.168 80.6064C131.082 80.5771 130.997 80.6064 130.912 80.6648C130.685 80.6941 130.458 80.7233 130.203 80.7233C130.004 80.6941 129.806 80.6941 129.607 80.7233C129.494 80.7233 129.38 80.7233 129.267 80.6941C129.239 80.6648 129.182 80.6648 129.125 80.6648C129.068 80.6648 129.012 80.6648 128.983 80.6648C128.983 80.6356 128.955 80.6356 128.927 80.6648C128.87 80.6648 128.841 80.6064 128.785 80.6356C128.728 80.6064 128.7 80.5479 128.643 80.5771C128.615 80.5771 128.615 80.5771 128.586 80.5771C128.558 80.5479 128.529 80.5186 128.501 80.5479C128.473 80.5479 128.473 80.5479 128.444 80.5479C128.416 80.5186 128.388 80.4894 128.359 80.5186C128.076 80.4309 127.792 80.314 127.537 80.1386C127.395 80.0509 127.281 79.9924 127.139 79.9047C126.827 79.6708 126.515 79.4076 126.232 79.1153C126.232 79.086 126.232 79.0568 126.203 79.0568C126.175 79.0276 126.147 78.9983 126.118 78.9691C126.09 78.9106 126.062 78.8521 126.005 78.8229C125.948 78.706 125.835 78.6475 125.749 78.5305C125.749 78.5013 125.721 78.4721 125.693 78.4721C125.693 78.4721 125.693 78.4428 125.664 78.4428C125.664 78.4136 125.664 78.3843 125.636 78.3843C125.608 78.3551 125.608 78.3551 125.579 78.3259C125.579 78.2674 125.551 78.2382 125.494 78.2382C125.239 77.9458 125.012 77.6534 124.757 77.3611C124.501 77.0687 124.246 76.7471 123.991 76.4547C123.962 76.4255 123.934 76.3962 123.877 76.3378C123.849 76.25 123.792 76.1623 123.707 76.1331C123.679 76.1039 123.65 76.0746 123.622 76.0162C123.622 75.9869 123.594 75.9869 123.594 75.9577C123.594 75.9284 123.537 75.8992 123.509 75.87C123.509 75.8115 123.48 75.8115 123.452 75.7823L123.423 75.753C123.423 75.7238 123.423 75.6945 123.395 75.6945C123.168 75.4314 122.97 75.1683 122.743 74.9344C122.743 74.9051 122.743 74.8759 122.714 74.8759C122.714 74.8174 122.686 74.7882 122.629 74.7882C122.374 74.4666 122.119 74.1742 121.835 73.8526C121.778 73.7649 121.693 73.7064 121.636 73.6187C121.409 73.3263 121.126 73.1217 120.814 72.9755C120.729 72.9463 120.643 72.8586 120.558 72.8586C120.53 72.8293 120.502 72.8001 120.473 72.8293H120.445C120.417 72.8001 120.388 72.7708 120.331 72.8001C120.076 72.7708 119.792 72.6831 119.537 72.7124C119.48 72.7124 119.395 72.7416 119.339 72.7416C119.31 72.7124 119.282 72.7124 119.254 72.7708C119.225 72.7708 119.197 72.7708 119.168 72.7708C119.112 72.7416 119.083 72.7708 119.055 72.8001C119.027 72.8001 118.998 72.8001 118.97 72.8001C118.941 72.7708 118.913 72.8001 118.913 72.8293C118.743 72.8586 118.601 72.9463 118.459 73.0047C118.204 73.1509 117.977 73.2971 117.778 73.531C117.58 73.7357 117.41 73.9988 117.296 74.2619C117.239 74.2619 117.268 74.3204 117.268 74.3496C117.268 74.3789 117.268 74.3789 117.239 74.4081C117.211 74.4081 117.211 74.4374 117.211 74.4666C117.211 74.4958 117.183 74.5251 117.183 74.5543C117.098 74.6128 117.098 74.7005 117.098 74.8174C117.126 74.9051 117.069 74.9929 117.041 75.0806C117.041 75.139 117.041 75.1975 117.041 75.2267C116.984 75.2852 116.984 75.4899 117.041 75.5484C117.041 75.9284 117.154 76.25 117.325 76.6009C117.438 76.8348 117.608 77.0394 117.778 77.2441C117.977 77.478 118.204 77.6242 118.459 77.7996C118.573 77.8873 118.715 77.9458 118.885 77.9458C118.913 77.975 118.941 78.0335 118.97 77.975C118.998 77.975 119.027 77.975 119.055 77.975C118.97 77.9458 119.112 77.9458 119.197 77.8873Z" fill="white"/>
<path d="M118.97 65.4031C118.998 65.3739 119.055 65.4031 119.083 65.3739C119.254 65.3739 119.424 65.3739 119.622 65.3739L119.651 65.4031C119.452 65.4031 119.254 65.3739 119.055 65.4324C118.998 65.4324 118.97 65.4031 118.97 65.4031Z" fill="white"/>
<path d="M130.317 65.3739V65.4031C130.146 65.4031 129.976 65.4031 129.806 65.4031V65.3739C129.976 65.3739 130.146 65.3739 130.317 65.3739Z" fill="white"/>
<path d="M135.054 75.87C135.025 75.7823 135.025 75.6946 135.082 75.6068C135.082 75.6946 135.082 75.7823 135.082 75.87C135.082 75.8407 135.054 75.8407 135.054 75.87Z" fill="white"/>
<path d="M135.082 74.9344C135.025 74.8759 135.025 74.7882 135.025 74.6713C135.054 74.6713 135.054 74.7005 135.082 74.7297C135.082 74.7882 135.082 74.8759 135.082 74.9344Z" fill="white"/>
<path d="M118.97 65.4031C118.97 65.4324 118.998 65.4324 119.027 65.4324C119.225 65.4031 119.424 65.4324 119.622 65.4031C119.963 65.4324 120.246 65.5786 120.502 65.7832C120.502 65.8125 120.53 65.8125 120.558 65.8125C120.643 65.9002 120.729 65.9879 120.785 66.0756C120.87 66.1925 120.927 66.3387 121.012 66.4557C121.069 66.6019 121.126 66.7188 121.126 66.8942C121.097 66.9235 121.126 66.9235 121.154 66.9527V66.9819C121.126 67.0112 121.126 67.0404 121.182 67.0696C121.182 67.1574 121.182 67.2451 121.182 67.3328C121.154 67.3328 121.154 67.362 121.182 67.3913C121.182 67.4205 121.182 67.4205 121.182 67.4497C121.126 67.5667 121.097 67.6836 121.097 67.8006C121.069 67.8298 121.069 67.859 121.041 67.9175C121.012 67.9468 120.984 67.9468 121.012 68.0052C120.984 68.0345 120.984 68.0637 120.955 68.0929C120.927 68.1222 120.899 68.1222 120.899 68.1807C120.672 68.5315 120.388 68.7654 120.048 68.9408C119.736 69.087 119.395 69.087 119.083 69.0578C118.771 69.0285 118.488 68.8823 118.232 68.6484C118.232 68.59 118.176 68.5607 118.119 68.5607C118.119 68.5315 118.09 68.5315 118.09 68.5315C118.09 68.5023 118.062 68.5023 118.062 68.473C117.949 68.3853 117.892 68.2391 117.807 68.1222C117.807 68.0929 117.807 68.0637 117.778 68.0345C117.778 68.0345 117.778 68.0052 117.75 68.0052C117.75 67.9468 117.722 67.8883 117.693 67.8298V67.8006C117.722 67.7713 117.693 67.7713 117.665 67.7421C117.665 67.7129 117.665 67.6544 117.637 67.6251C117.665 67.5667 117.637 67.5082 117.608 67.479C117.608 67.3035 117.608 67.1574 117.608 66.9819C117.637 66.9235 117.665 66.865 117.637 66.7773V66.748C117.665 66.7188 117.665 66.7188 117.665 66.6896C117.807 66.2218 118.09 65.8709 118.488 65.637C118.601 65.5201 118.771 65.4616 118.97 65.4031Z" fill="white"/>
<path d="M129.806 65.4031C129.976 65.4031 130.146 65.4031 130.317 65.4031C130.714 65.4324 131.026 65.6078 131.309 65.8709C131.338 65.9002 131.366 65.9294 131.394 65.9586C131.394 65.9879 131.394 66.0171 131.423 66.0171C131.423 66.0464 131.451 66.0756 131.48 66.1048C131.65 66.3095 131.735 66.5434 131.792 66.8065C131.877 67.0696 131.82 67.3328 131.848 67.5667C131.82 67.5959 131.792 67.6251 131.82 67.6544C131.82 67.6836 131.82 67.7421 131.792 67.7713C131.735 67.8006 131.735 67.8298 131.763 67.859V67.8883C131.735 67.8883 131.706 67.9175 131.735 67.9468C131.735 67.976 131.706 68.0052 131.678 68.0637C131.65 68.0637 131.65 68.0929 131.65 68.1222C131.451 68.5023 131.168 68.7654 130.77 68.9116C130.657 68.97 130.572 69.0285 130.43 69.0285H130.402C130.175 69.087 129.919 69.087 129.692 69.0285C129.636 68.9993 129.579 68.9993 129.522 68.9993C129.437 68.9701 129.324 68.9408 129.239 68.8823C129.153 68.7654 129.04 68.7069 128.927 68.6484C128.927 68.6192 128.898 68.59 128.87 68.59C128.841 68.5607 128.813 68.5315 128.785 68.5023C128.785 68.4438 128.728 68.4145 128.671 68.3853C128.529 68.2099 128.416 68.0052 128.359 67.7713C128.331 67.6836 128.302 67.5667 128.302 67.479C128.331 67.4497 128.331 67.4497 128.302 67.4205V67.3913C128.302 67.2743 128.331 67.1574 128.302 67.0404C128.388 66.2218 128.813 65.7247 129.551 65.4324C129.551 65.4324 129.551 65.4324 129.551 65.4616C129.551 65.4616 129.551 65.4616 129.551 65.4324C129.551 65.4324 129.551 65.4324 129.579 65.4324C129.636 65.4324 129.664 65.4324 129.692 65.4031C129.721 65.4031 129.749 65.4031 129.806 65.4031Z" fill="white"/>
<path d="M120.643 70.0226C120.133 69.9056 119.622 69.8764 119.083 69.9056C119.112 69.8472 119.14 69.8764 119.197 69.8764C119.594 69.8764 119.991 69.8764 120.36 69.9349C120.445 69.9349 120.502 69.9933 120.587 69.9933C120.643 69.9641 120.643 69.9933 120.643 70.0226Z" fill="white"/>
<path d="M129.522 68.9993C129.579 68.9993 129.636 68.9993 129.692 69.0285C129.919 69.087 130.175 69.087 130.402 69.0285H130.43C130.402 69.087 130.345 69.087 130.317 69.087C130.061 69.087 129.834 69.1162 129.607 69.0578C129.551 69.0285 129.551 69.0285 129.522 68.9993Z" fill="white"/>
<path d="M130.997 70.0226C130.997 70.0518 130.969 70.0518 130.941 70.0518C130.742 69.9934 130.543 69.9641 130.317 69.9641C130.288 69.9641 130.26 69.9641 130.231 69.9349C130.43 69.9349 130.629 69.9641 130.856 69.9933C130.912 69.9933 130.969 69.9934 130.997 70.0226Z" fill="white"/>
<path d="M129.466 72.6539C129.494 72.5954 129.551 72.5954 129.579 72.5954C129.778 72.5954 129.976 72.5662 130.175 72.6247C130.203 72.6247 130.203 72.6539 130.231 72.6539C130.118 72.6832 130.004 72.6247 129.891 72.6247C129.778 72.6247 129.607 72.6539 129.466 72.6539Z" fill="white"/>
<path d="M129.21 69.9349C129.097 69.9641 128.983 69.9933 128.898 69.9933C128.813 69.9933 128.756 70.0518 128.671 70.0226C128.841 69.9641 129.012 69.8764 129.21 69.9349Z" fill="white"/>
<path d="M129.466 80.6648C129.664 80.6356 129.863 80.6356 130.061 80.6648C130.033 80.6941 130.004 80.6941 129.976 80.6941C129.834 80.6941 129.692 80.6941 129.551 80.6941C129.522 80.6941 129.494 80.6941 129.466 80.6648Z" fill="white"/>
<path d="M130.941 72.8586C131.082 72.8878 131.196 72.9463 131.281 73.0632C131.168 72.9755 131.054 72.9171 130.941 72.8586Z" fill="white"/>
<path d="M121.012 66.5141C120.927 66.3972 120.87 66.251 120.785 66.1341C120.927 66.2218 120.984 66.368 121.012 66.5141Z" fill="white"/>
<path d="M130.033 77.9166C129.919 77.975 129.778 77.975 129.664 77.9166C129.806 77.8873 129.919 77.8873 130.033 77.9166Z" fill="white"/>
<path d="M134.884 76.6301C134.912 76.5132 134.912 76.3962 134.968 76.2793C134.968 76.3962 134.996 76.5424 134.884 76.6301Z" fill="white"/>
<path d="M119.197 77.8873C119.112 77.9458 118.941 77.9166 118.856 77.8289C118.97 77.8581 119.083 77.8873 119.197 77.8873Z" fill="white"/>
<path d="M128.927 68.6484C129.04 68.7069 129.154 68.7654 129.239 68.8823C129.125 68.8239 129.012 68.7654 128.927 68.6484Z" fill="white"/>
<path d="M121.041 67.8298C121.041 67.7129 121.069 67.5959 121.126 67.479C121.154 67.5959 121.126 67.7129 121.041 67.8298Z" fill="white"/>
<path d="M116.899 74.6713C116.899 74.5836 116.899 74.4959 116.983 74.4081C116.983 74.5251 116.983 74.6128 116.899 74.6713Z" fill="white"/>
<path d="M128.274 67.0404C128.302 67.1574 128.274 67.2743 128.274 67.3912C128.217 67.2743 128.217 67.1574 128.274 67.0404Z" fill="white"/>
<path d="M116.842 75.4314C116.786 75.3729 116.786 75.1683 116.842 75.1098C116.87 75.2268 116.87 75.3145 116.842 75.4314Z" fill="white"/>
<path d="M130.742 80.6064C130.827 80.5479 130.912 80.5187 130.997 80.5479C130.941 80.6064 130.855 80.6064 130.742 80.6064Z" fill="white"/>
<path d="M123.537 76.0454C123.622 76.1039 123.679 76.1624 123.707 76.2501C123.65 76.1916 123.565 76.1331 123.537 76.0454Z" fill="white"/>
<path d="M131.565 73.2679C131.65 73.2971 131.706 73.3556 131.735 73.4433C131.65 73.3848 131.593 73.3264 131.565 73.2679Z" fill="white"/>
<path d="M121.721 80.1093C121.778 80.0509 121.863 80.0216 121.948 79.9924C121.892 80.0509 121.807 80.1093 121.721 80.1093Z" fill="white"/>
<path d="M114.403 76.6009C114.459 76.6594 114.487 76.7178 114.487 76.8056C114.431 76.7763 114.431 76.6886 114.403 76.6009Z" fill="white"/>
<path d="M127.48 76.5717C127.423 76.5132 127.338 76.484 127.338 76.3962C127.423 76.4255 127.451 76.484 127.48 76.5717Z" fill="white"/>
<path d="M131.508 80.4017C131.565 80.3432 131.65 80.3432 131.706 80.314C131.65 80.4017 131.565 80.4017 131.508 80.4017Z" fill="white"/>
<path d="M117.608 66.7773C117.636 66.865 117.608 66.9235 117.58 66.9819C117.523 66.9235 117.551 66.8358 117.608 66.7773Z" fill="white"/>
<path d="M117.24 80.1386C117.325 80.1386 117.381 80.1678 117.41 80.2263C117.353 80.2263 117.296 80.1678 117.24 80.1386Z" fill="white"/>
<path d="M122.913 71.2213C122.856 71.1921 122.799 71.1628 122.771 71.0751C122.828 71.1043 122.884 71.1336 122.913 71.2213Z" fill="white"/>
<path d="M133.295 79.3492C133.323 79.2907 133.352 79.2322 133.437 79.2322C133.409 79.2615 133.38 79.3199 133.295 79.3492Z" fill="white"/>
<path d="M125.806 78.7352C125.863 78.7644 125.92 78.7937 125.92 78.8814C125.891 78.8229 125.835 78.7937 125.806 78.7352Z" fill="white"/>
<path d="M133.579 79.0568C133.579 78.9983 133.635 78.9399 133.692 78.9106C133.692 78.9983 133.635 79.0276 133.579 79.0568Z" fill="white"/>
<path d="M114.743 77.5365C114.799 77.5657 114.827 77.6242 114.827 77.7119C114.771 77.6534 114.743 77.595 114.743 77.5365Z" fill="white"/>
<path d="M128.473 80.5187C128.529 80.4894 128.586 80.5187 128.614 80.5771C128.558 80.6064 128.529 80.5479 128.473 80.5187Z" fill="white"/>
<path d="M132.444 75.5776C132.5 75.6361 132.472 75.6946 132.416 75.7238C132.416 75.6653 132.416 75.6068 132.444 75.5776Z" fill="white"/>
<path d="M117.637 67.8298C117.693 67.8883 117.693 67.9468 117.693 68.0052C117.665 67.9468 117.637 67.9175 117.637 67.8298Z" fill="white"/>
<path d="M114.374 76.3962C114.43 76.4255 114.43 76.484 114.402 76.5424C114.374 76.484 114.346 76.4547 114.374 76.3962Z" fill="white"/>
<path d="M128.643 68.3853C128.7 68.3853 128.728 68.4438 128.756 68.5023C128.7 68.473 128.671 68.4438 128.643 68.3853Z" fill="white"/>
<path d="M124.812 73.3556C124.756 73.3264 124.728 73.2971 124.728 73.2386C124.756 73.2679 124.812 73.2971 124.812 73.3556Z" fill="white"/>
<path d="M127.905 73.4725C127.905 73.4141 127.962 73.3556 128.019 73.3556C127.99 73.4141 127.962 73.4433 127.905 73.4725Z" fill="white"/>
<path d="M125.976 71.6014C125.976 71.6599 125.92 71.6891 125.863 71.7183C125.863 71.6599 125.92 71.6306 125.976 71.6014Z" fill="white"/>
<path d="M117.552 67.479C117.58 67.5374 117.608 67.5667 117.58 67.6252C117.552 67.5667 117.552 67.5374 117.552 67.479Z" fill="white"/>
<path d="M131.338 80.4602C131.366 80.4017 131.394 80.4017 131.451 80.4017C131.423 80.4602 131.394 80.4894 131.338 80.4602Z" fill="white"/>
<path d="M117.183 70.4319C117.154 70.4904 117.098 70.5196 117.041 70.4904C117.069 70.4611 117.126 70.4319 117.183 70.4319Z" fill="white"/>
<path d="M118.601 80.5771C118.658 80.5479 118.686 80.5479 118.743 80.6064C118.686 80.5771 118.629 80.6064 118.601 80.5771Z" fill="white"/>
<path d="M128.983 80.6064C129.04 80.6064 129.068 80.6064 129.125 80.6356C129.068 80.6941 129.012 80.6649 128.983 80.6064Z" fill="white"/>
<path d="M118.09 68.5607C118.147 68.59 118.176 68.59 118.204 68.6484C118.147 68.6484 118.119 68.6192 118.09 68.5607Z" fill="white"/>
<path d="M119.991 77.8581C119.963 77.9166 119.906 77.9166 119.849 77.8873C119.906 77.8581 119.934 77.8289 119.991 77.8581Z" fill="white"/>
<path d="M118.856 72.6831C118.885 72.6539 118.913 72.6247 118.97 72.6539C118.941 72.6831 118.885 72.7124 118.856 72.6831Z" fill="white"/>
<path d="M125.296 78.1505C125.352 78.1505 125.38 78.1797 125.38 78.2382C125.352 78.2089 125.324 78.1797 125.296 78.1505Z" fill="white"/>
<path d="M118.77 77.8289C118.714 77.8581 118.686 77.8289 118.686 77.7996C118.742 77.7996 118.77 77.7996 118.77 77.8289Z" fill="white"/>
<path d="M122.431 74.7297C122.487 74.7297 122.515 74.759 122.515 74.8174C122.487 74.7882 122.431 74.7882 122.431 74.7297Z" fill="white"/>
<path d="M120.672 80.5186C120.7 80.4894 120.729 80.4602 120.785 80.4894C120.757 80.4894 120.729 80.5186 120.672 80.5186Z" fill="white"/>
<path d="M118.403 80.5187C118.459 80.4894 118.488 80.5187 118.516 80.5479C118.488 80.5771 118.431 80.5479 118.403 80.5187Z" fill="white"/>
<path d="M129.664 65.4031C129.636 65.4324 129.607 65.4616 129.551 65.4324C129.579 65.4031 129.607 65.3739 129.664 65.4031Z" fill="white"/>
<path d="M120.189 77.7996C120.161 77.8289 120.133 77.8581 120.104 77.8289C120.104 77.7996 120.133 77.7996 120.189 77.7996Z" fill="white"/>
<path d="M129.04 72.7416C129.068 72.7124 129.097 72.6831 129.154 72.7124C129.125 72.7416 129.097 72.7416 129.04 72.7416Z" fill="white"/>
<path d="M127.82 70.2857C127.792 70.3442 127.735 70.3442 127.707 70.3442C127.735 70.2857 127.792 70.2857 127.82 70.2857Z" fill="white"/>
<path d="M120.275 72.7416C120.331 72.7124 120.359 72.7416 120.359 72.7709C120.331 72.8001 120.303 72.7709 120.275 72.7416Z" fill="white"/>
<path d="M118.231 70.0226C118.203 70.0518 118.175 70.0811 118.147 70.0518C118.175 70.0518 118.203 70.0226 118.231 70.0226Z" fill="white"/>
<path d="M132.416 74.8467C132.444 74.8759 132.472 74.9052 132.444 74.9636C132.416 74.9344 132.387 74.8759 132.416 74.8467Z" fill="white"/>
<path d="M128.161 80.431C128.217 80.4017 128.245 80.431 128.245 80.4602C128.217 80.4894 128.189 80.4602 128.161 80.431Z" fill="white"/>
<path d="M118.062 70.081C118.034 70.1103 118.005 70.1395 117.949 70.1103C117.977 70.0811 118.005 70.0518 118.062 70.081Z" fill="white"/>
<path d="M128.388 70.081C128.359 70.1103 128.331 70.1395 128.274 70.1103C128.302 70.0811 128.331 70.0518 128.388 70.081Z" fill="white"/>
<path d="M120.133 72.6832C120.19 72.6539 120.218 72.6832 120.246 72.7124C120.19 72.7709 120.161 72.7416 120.133 72.6832Z" fill="white"/>
<path d="M131.763 67.859C131.735 67.8298 131.763 67.7713 131.792 67.7713C131.82 67.8006 131.792 67.8298 131.763 67.859Z" fill="white"/>
<path d="M123.196 79.0568C123.196 78.9983 123.225 78.9691 123.281 78.9691C123.253 78.9983 123.225 79.0276 123.196 79.0568Z" fill="white"/>
<path d="M128.557 70.0226C128.529 70.0518 128.501 70.0811 128.473 70.0518C128.473 70.0518 128.501 70.0226 128.557 70.0226Z" fill="white"/>
<path d="M131.337 70.1103C131.281 70.1395 131.281 70.1103 131.253 70.081C131.281 70.0518 131.309 70.0811 131.337 70.1103Z" fill="white"/>
<path d="M120.502 80.5479C120.53 80.4894 120.558 80.4894 120.586 80.5187C120.558 80.5479 120.53 80.5479 120.502 80.5479Z" fill="white"/>
<path d="M128.331 80.4602C128.387 80.431 128.387 80.4602 128.415 80.4894C128.387 80.5187 128.359 80.4894 128.331 80.4602Z" fill="white"/>
<path d="M131.82 67.6252C131.792 67.5667 131.82 67.5667 131.848 67.5374C131.877 67.5959 131.848 67.6252 131.82 67.6252Z" fill="white"/>
<path d="M120.899 68.1806C120.899 68.1514 120.927 68.1222 120.956 68.0929C120.956 68.1514 120.927 68.1806 120.899 68.1806Z" fill="white"/>
<path d="M123.395 76.8056C123.367 76.8056 123.338 76.7763 123.338 76.7178C123.367 76.7471 123.395 76.7471 123.395 76.8056Z" fill="white"/>
<path d="M131.48 66.0756C131.451 66.0756 131.423 66.0464 131.423 65.9879C131.451 66.0171 131.48 66.0171 131.48 66.0756Z" fill="white"/>
<path d="M132.331 74.4666C132.359 74.4666 132.387 74.4959 132.359 74.5543C132.331 74.5251 132.302 74.5251 132.331 74.4666Z" fill="white"/>
<path d="M126.09 71.4844C126.09 71.5429 126.062 71.5429 126.033 71.5429C126.033 71.5137 126.062 71.4844 126.09 71.4844Z" fill="white"/>
<path d="M123.282 75.7238C123.31 75.7238 123.338 75.753 123.338 75.8115C123.31 75.7823 123.282 75.753 123.282 75.7238Z" fill="white"/>
<path d="M131.451 73.1509C131.479 73.1509 131.507 73.1802 131.535 73.2094C131.479 73.2387 131.451 73.2094 131.451 73.1509Z" fill="white"/>
<path d="M125.267 72.9463C125.296 72.9463 125.324 72.9755 125.324 73.034C125.296 73.0048 125.267 73.0048 125.267 72.9463Z" fill="white"/>
<path d="M127.735 76.8348C127.707 76.8348 127.678 76.8056 127.678 76.7471C127.707 76.7763 127.735 76.8056 127.735 76.8348Z" fill="white"/>
<path d="M131.706 67.9467C131.678 67.9175 131.706 67.8883 131.735 67.8883C131.763 67.9175 131.735 67.9467 131.706 67.9467Z" fill="white"/>
<path d="M120.984 68.0052C120.955 67.976 120.984 67.9467 121.012 67.9175C121.041 67.976 121.012 67.976 120.984 68.0052Z" fill="white"/>
<path d="M128.841 68.59C128.87 68.59 128.898 68.6192 128.898 68.6484C128.87 68.6484 128.87 68.6484 128.841 68.59Z" fill="white"/>
<path d="M117.522 70.2565C117.494 70.2857 117.494 70.3149 117.438 70.2857C117.466 70.2857 117.466 70.2565 117.522 70.2565Z" fill="white"/>
<path d="M117.892 70.1395C117.892 70.1688 117.864 70.198 117.835 70.1688C117.835 70.1395 117.864 70.1103 117.892 70.1395Z" fill="white"/>
<path d="M125.494 78.3551C125.523 78.3551 125.551 78.3844 125.551 78.4136C125.523 78.4136 125.494 78.4136 125.494 78.3551Z" fill="white"/>
<path d="M117.636 70.2272C117.608 70.2565 117.608 70.2857 117.552 70.2565C117.58 70.2272 117.58 70.198 117.636 70.2272Z" fill="white"/>
<path d="M124.472 72.9755C124.444 72.9755 124.416 72.9463 124.416 72.8878C124.472 72.9171 124.5 72.9463 124.472 72.9755Z" fill="white"/>
<path d="M117.637 66.6896C117.637 66.7188 117.637 66.748 117.608 66.748C117.58 66.7188 117.58 66.6896 117.637 66.6896Z" fill="white"/>
<path d="M121.154 67.0989C121.126 67.0696 121.126 67.0696 121.126 67.0112C121.182 67.0404 121.154 67.0696 121.154 67.0989Z" fill="white"/>
<path d="M119.055 72.6539C119.083 72.6247 119.111 72.6247 119.139 72.6247C119.111 72.6831 119.083 72.6539 119.055 72.6539Z" fill="white"/>
<path d="M117.722 68.0345C117.749 68.0637 117.749 68.0929 117.749 68.1222C117.722 68.0929 117.722 68.0637 117.722 68.0345Z" fill="white"/>
<path d="M120.303 77.7704C120.303 77.8289 120.275 77.8289 120.246 77.7996C120.246 77.7704 120.275 77.7704 120.303 77.7704Z" fill="white"/>
<path d="M117.069 74.2327C117.069 74.2035 117.069 74.1742 117.097 74.145C117.097 74.1742 117.097 74.2035 117.069 74.2327Z" fill="white"/>
<path d="M120.445 77.7412C120.445 77.7704 120.417 77.7996 120.388 77.7704C120.388 77.7119 120.417 77.7119 120.445 77.7412Z" fill="white"/>
<path d="M117.154 80.0801C117.183 80.0509 117.211 80.0509 117.211 80.1094C117.211 80.1094 117.183 80.1094 117.154 80.0801Z" fill="white"/>
<path d="M115.764 79.0568C115.793 79.0568 115.821 79.086 115.821 79.1153C115.793 79.1153 115.793 79.086 115.764 79.0568Z" fill="white"/>
<path d="M131.167 70.0811C131.139 70.1103 131.11 70.1103 131.082 70.0518C131.139 70.0518 131.139 70.0518 131.167 70.0811Z" fill="white"/>
<path d="M127.678 70.3442C127.649 70.3734 127.621 70.3734 127.593 70.3734C127.621 70.3442 127.649 70.3442 127.678 70.3442Z" fill="white"/>
<path d="M128.927 72.7709C128.927 72.7124 128.955 72.7124 128.983 72.7416C128.983 72.7709 128.955 72.7709 128.927 72.7709Z" fill="white"/>
<path d="M115.027 78.092C115.055 78.092 115.083 78.1212 115.055 78.1504C115.027 78.1504 115.027 78.1212 115.027 78.092Z" fill="white"/>
<path d="M118.715 72.7124C118.715 72.6831 118.743 72.6831 118.771 72.6831C118.743 72.7124 118.743 72.7416 118.715 72.7124Z" fill="white"/>
<path d="M123.792 78.3844C123.792 78.3551 123.792 78.3259 123.82 78.3259C123.82 78.3551 123.82 78.3844 123.792 78.3844Z" fill="white"/>
<path d="M125.437 78.2966C125.465 78.2966 125.465 78.3259 125.465 78.3551C125.465 78.3259 125.437 78.3259 125.437 78.2966Z" fill="white"/>
<path d="M118.062 68.5315C118.091 68.5315 118.091 68.5614 118.091 68.5614C118.062 68.5614 118.062 68.5614 118.062 68.5315Z" fill="white"/>
<path d="M128.785 80.6064C128.813 80.6064 128.813 80.6064 128.841 80.6064C128.813 80.6356 128.785 80.6064 128.785 80.6064Z" fill="white"/>
<path d="M133.182 79.4369C133.182 79.4077 133.21 79.4077 133.238 79.4077C133.21 79.4369 133.21 79.4369 133.182 79.4369Z" fill="white"/>
<path d="M118.97 80.6064C118.998 80.5771 118.998 80.5771 119.027 80.6064C118.998 80.6356 118.998 80.6356 118.97 80.6064Z" fill="white"/>
<path d="M117.069 80.0216C117.098 79.9924 117.126 80.0216 117.126 80.0509C117.098 80.0801 117.098 80.0509 117.069 80.0216Z" fill="white"/>
<path d="M132.359 74.642C132.387 74.642 132.387 74.6713 132.387 74.7005C132.359 74.6713 132.331 74.6713 132.359 74.642Z" fill="white"/>
<path d="M120.558 65.8417C120.53 65.8417 120.502 65.8417 120.502 65.8125C120.53 65.8125 120.53 65.8125 120.558 65.8417Z" fill="white"/>
<path d="M131.422 65.9879C131.394 65.9879 131.366 65.9879 131.394 65.9294C131.394 65.9586 131.422 65.9586 131.422 65.9879Z" fill="white"/>
<path d="M123.395 75.8992C123.423 75.8992 123.423 75.9285 123.423 75.9577C123.423 75.9285 123.395 75.9285 123.395 75.8992Z" fill="white"/>
<path d="M127.536 76.6009C127.508 76.6009 127.508 76.5717 127.508 76.5424C127.536 76.5717 127.536 76.6009 127.536 76.6009Z" fill="white"/>
<path d="M121.125 66.9819C121.097 66.9819 121.069 66.9527 121.097 66.9235C121.153 66.9527 121.153 66.9527 121.125 66.9819Z" fill="white"/>
<path d="M117.013 74.3496C117.013 74.3204 117.013 74.3204 117.041 74.2912C117.069 74.3204 117.041 74.3496 117.013 74.3496Z" fill="white"/>
<path d="M127.678 76.7763C127.65 76.7763 127.622 76.7763 127.65 76.7178C127.65 76.7178 127.678 76.7471 127.678 76.7763Z" fill="white"/>
<path d="M131.735 73.4433C131.762 73.4433 131.762 73.4725 131.762 73.5018C131.762 73.5018 131.735 73.4725 131.735 73.4433Z" fill="white"/>
<path d="M128.047 73.3264C128.047 73.2971 128.076 73.2971 128.104 73.2679C128.104 73.2971 128.104 73.3264 128.047 73.3264Z" fill="white"/>
<path d="M121.154 67.4205C121.125 67.3912 121.154 67.3912 121.154 67.362C121.154 67.3912 121.154 67.3912 121.154 67.4205Z" fill="white"/>
<path d="M123.196 75.6361C123.225 75.6361 123.253 75.6361 123.225 75.6945C123.225 75.6653 123.196 75.6653 123.196 75.6361Z" fill="white"/>
<path d="M128.274 67.4205C128.302 67.4205 128.302 67.4497 128.274 67.479C128.274 67.479 128.246 67.4497 128.274 67.4205Z" fill="white"/>
<path d="M117.608 67.7421C117.636 67.7421 117.664 67.7421 117.636 67.8006C117.608 67.8006 117.608 67.7713 117.608 67.7421Z" fill="white"/>
<path d="M131.65 68.1222C131.65 68.0929 131.65 68.0929 131.677 68.0637C131.677 68.0929 131.677 68.1222 131.65 68.1222Z" fill="white"/>
<path d="M114.771 72.9171C114.771 72.9463 114.743 72.9463 114.743 72.9755C114.715 72.9463 114.743 72.9463 114.771 72.9171Z" fill="white"/>
<path d="M118.005 68.473C118.033 68.473 118.033 68.5023 118.033 68.5315C118.033 68.5315 118.005 68.5023 118.005 68.473Z" fill="white"/>
<path d="M125.211 72.9171C125.238 72.9171 125.238 72.9463 125.238 72.9755C125.238 72.9463 125.211 72.9463 125.211 72.9171Z" fill="white"/>
<path d="M131.423 70.1688C131.394 70.1688 131.394 70.1688 131.366 70.1395C131.423 70.1103 131.423 70.1395 131.423 70.1688Z" fill="white"/>
<path d="M117.778 70.1688C117.75 70.198 117.75 70.198 117.722 70.198C117.722 70.1688 117.75 70.1688 117.778 70.1688Z" fill="white"/>
<path d="M133.267 79.3784C133.267 79.3492 133.295 79.3492 133.323 79.3492C133.295 79.3784 133.295 79.3784 133.267 79.3784Z" fill="white"/>
<path d="M127.565 70.4027C127.565 70.4319 127.537 70.4319 127.508 70.4027C127.508 70.4027 127.537 70.3734 127.565 70.4027Z" fill="white"/>
<path d="M122.743 71.0459C122.714 71.0459 122.686 71.0459 122.686 71.0166C122.714 71.0166 122.714 71.0166 122.743 71.0459Z" fill="white"/>
<path d="M116.984 70.5196C116.984 70.5489 116.984 70.5781 116.927 70.5489C116.956 70.5196 116.984 70.5196 116.984 70.5196Z" fill="white"/>
<path d="M126.884 70.812C126.884 70.8412 126.856 70.8412 126.827 70.8412C126.827 70.812 126.856 70.812 126.884 70.812Z" fill="white"/>
<path d="M133.494 79.1738C133.494 79.1445 133.494 79.1153 133.521 79.1445C133.521 79.1445 133.521 79.1445 133.494 79.1738Z" fill="white"/>
<path d="M124.416 72.9171C124.388 72.9171 124.36 72.9171 124.388 72.8586C124.416 72.8586 124.416 72.8878 124.416 72.9171Z" fill="white"/>
<path d="M126.43 71.1628C126.43 71.192 126.402 71.1921 126.374 71.1921C126.374 71.1628 126.402 71.1628 126.43 71.1628Z" fill="white"/>
<path d="M114.856 72.7416C114.856 72.7708 114.856 72.7708 114.828 72.8001C114.8 72.7708 114.828 72.7416 114.856 72.7416Z" fill="white"/>
<path d="M126.203 71.3967C126.203 71.426 126.175 71.426 126.147 71.426C126.147 71.3967 126.175 71.3967 126.203 71.3967Z" fill="white"/>
<path d="M133.437 79.203C133.437 79.1738 133.437 79.1445 133.494 79.1738C133.494 79.203 133.465 79.203 133.437 79.203Z" fill="white"/>
<path d="M122.516 74.8174C122.544 74.8174 122.572 74.8174 122.544 74.8759C122.544 74.8759 122.516 74.8467 122.516 74.8174Z" fill="white"/>
<path d="M119.168 80.6356C119.197 80.6064 119.197 80.6064 119.225 80.6356C119.168 80.6648 119.168 80.6648 119.168 80.6356Z" fill="white"/>
<path d="M133.55 79.1153C133.55 79.0861 133.55 79.0568 133.578 79.0861L133.55 79.1153Z" fill="white"/>
<path d="M126.005 78.9691C126.032 78.9691 126.032 78.9983 126.032 79.0276C126.032 78.9983 126.005 78.9691 126.005 78.9691Z" fill="white"/>
<path d="M114.884 72.6539C114.884 72.6831 114.884 72.6831 114.857 72.7124C114.857 72.6831 114.857 72.6539 114.884 72.6539Z" fill="white"/>
<path d="M126.629 70.9874C126.6 71.0173 126.629 71.0173 126.629 70.9874C126.6 70.9874 126.6 71.0173 126.629 70.9874Z" fill="white"/>
<path d="M112.46 86.048C112.256 86.048 112.08 85.9997 111.932 85.9031C111.784 85.8065 111.671 85.6735 111.591 85.504C111.512 85.3344 111.472 85.1408 111.472 84.923C111.472 84.7014 111.512 84.5058 111.594 84.3363C111.676 84.1659 111.791 84.0328 111.938 83.9372C112.085 83.8406 112.258 83.7923 112.455 83.7923C112.608 83.7923 112.746 83.8207 112.869 83.8775C112.993 83.9344 113.093 84.0139 113.172 84.1162C113.251 84.2184 113.299 84.3378 113.318 84.4741H112.983C112.958 84.3747 112.901 84.2866 112.813 84.2099C112.726 84.1323 112.608 84.0934 112.46 84.0934C112.33 84.0934 112.215 84.1275 112.117 84.1957C112.019 84.2629 111.943 84.3581 111.888 84.4812C111.834 84.6034 111.807 84.7469 111.807 84.9116C111.807 85.0802 111.833 85.227 111.887 85.352C111.941 85.477 112.016 85.574 112.114 85.6432C112.212 85.7123 112.328 85.7469 112.46 85.7469C112.548 85.7469 112.627 85.7317 112.698 85.7014C112.769 85.6711 112.829 85.6275 112.878 85.5707C112.927 85.5139 112.962 85.4457 112.983 85.3662H113.318C113.299 85.495 113.253 85.611 113.178 85.7142C113.104 85.8165 113.006 85.8979 112.884 85.9585C112.762 86.0182 112.621 86.048 112.46 86.048ZM114.144 84.69V86.0025H113.808V83.0934H114.144V84.1616H114.172C114.223 84.0489 114.3 83.9594 114.402 83.8932C114.505 83.8259 114.643 83.7923 114.814 83.7923C114.963 83.7923 115.093 83.8221 115.205 83.8818C115.316 83.9405 115.403 84.0309 115.465 84.1531C115.527 84.2743 115.558 84.4287 115.558 84.6162V86.0025H115.223V84.6389C115.223 84.4656 115.178 84.3316 115.088 84.2369C114.999 84.1413 114.876 84.0934 114.717 84.0934C114.608 84.0934 114.509 84.1166 114.422 84.163C114.336 84.2094 114.268 84.2772 114.217 84.3662C114.168 84.4552 114.144 84.5631 114.144 84.69ZM116.172 86.0025V83.8207H116.507V86.0025H116.172ZM116.342 83.4571C116.277 83.4571 116.22 83.4348 116.173 83.3903C116.127 83.3458 116.104 83.2923 116.104 83.2298C116.104 83.1673 116.127 83.1138 116.173 83.0693C116.22 83.0248 116.277 83.0025 116.342 83.0025C116.407 83.0025 116.463 83.0248 116.51 83.0693C116.557 83.1138 116.581 83.1673 116.581 83.2298C116.581 83.2923 116.557 83.3458 116.51 83.3903C116.463 83.4348 116.407 83.4571 116.342 83.4571ZM117.121 86.8207V83.8207H117.445V84.1673H117.485C117.509 84.1294 117.543 84.0811 117.587 84.0224C117.631 83.9628 117.695 83.9097 117.777 83.8633C117.86 83.816 117.973 83.7923 118.115 83.7923C118.299 83.7923 118.461 83.8382 118.601 83.9301C118.741 84.0219 118.851 84.1522 118.929 84.3207C119.008 84.4893 119.047 84.6881 119.047 84.9173C119.047 85.1484 119.008 85.3487 118.929 85.5182C118.851 85.6867 118.742 85.8174 118.602 85.9102C118.463 86.0021 118.303 86.048 118.121 86.048C117.981 86.048 117.869 86.0248 117.784 85.9784C117.7 85.931 117.635 85.8775 117.59 85.8179C117.544 85.7573 117.509 85.7071 117.485 85.6673H117.456V86.8207H117.121ZM117.45 84.9116C117.45 85.0764 117.475 85.2218 117.523 85.3477C117.571 85.4727 117.642 85.5707 117.735 85.6417C117.827 85.7118 117.941 85.7469 118.075 85.7469C118.216 85.7469 118.333 85.7099 118.426 85.6361C118.521 85.5612 118.592 85.4609 118.639 85.3349C118.688 85.208 118.712 85.0669 118.712 84.9116C118.712 84.7582 118.688 84.62 118.641 84.4969C118.594 84.3728 118.524 84.2748 118.429 84.2028C118.335 84.1299 118.217 84.0934 118.075 84.0934C117.939 84.0934 117.825 84.128 117.732 84.1971C117.639 84.2653 117.569 84.361 117.521 84.4841C117.474 84.6062 117.45 84.7487 117.45 84.9116ZM120.445 86.048C120.24 86.048 120.064 85.9997 119.916 85.9031C119.769 85.8065 119.655 85.6735 119.575 85.504C119.496 85.3344 119.456 85.1408 119.456 84.923C119.456 84.7014 119.497 84.5058 119.578 84.3363C119.661 84.1659 119.775 84.0328 119.922 83.9372C120.07 83.8406 120.242 83.7923 120.439 83.7923C120.592 83.7923 120.731 83.8207 120.854 83.8775C120.977 83.9344 121.078 84.0139 121.156 84.1162C121.235 84.2184 121.284 84.3378 121.303 84.4741H120.967C120.942 84.3747 120.885 84.2866 120.797 84.2099C120.71 84.1323 120.592 84.0934 120.445 84.0934C120.314 84.0934 120.2 84.1275 120.101 84.1957C120.003 84.2629 119.927 84.3581 119.872 84.4812C119.818 84.6034 119.791 84.7469 119.791 84.9116C119.791 85.0802 119.818 85.227 119.871 85.352C119.925 85.477 120.001 85.574 120.098 85.6432C120.197 85.7123 120.312 85.7469 120.445 85.7469C120.532 85.7469 120.611 85.7317 120.682 85.7014C120.753 85.6711 120.813 85.6275 120.862 85.5707C120.912 85.5139 120.947 85.4457 120.967 85.3662H121.303C121.284 85.495 121.237 85.611 121.162 85.7142C121.088 85.8165 120.99 85.8979 120.868 85.9585C120.747 86.0182 120.606 86.048 120.445 86.048ZM122.128 84.69V86.0025H121.793V83.0934H122.128V84.1616H122.156C122.208 84.0489 122.284 83.9594 122.387 83.8932C122.49 83.8259 122.627 83.7923 122.798 83.7923C122.947 83.7923 123.077 83.8221 123.189 83.8818C123.301 83.9405 123.387 84.0309 123.449 84.1531C123.512 84.2743 123.543 84.4287 123.543 84.6162V86.0025H123.208V84.6389C123.208 84.4656 123.163 84.3316 123.073 84.2369C122.984 84.1413 122.86 84.0934 122.702 84.0934C122.592 84.0934 122.494 84.1166 122.406 84.163C122.32 84.2094 122.252 84.2772 122.202 84.3662C122.153 84.4552 122.128 84.5631 122.128 84.69ZM124.156 86.0025V83.8207H124.491V86.0025H124.156ZM124.327 83.4571C124.261 83.4571 124.205 83.4348 124.157 83.3903C124.111 83.3458 124.088 83.2923 124.088 83.2298C124.088 83.1673 124.111 83.1138 124.157 83.0693C124.205 83.0248 124.261 83.0025 124.327 83.0025C124.392 83.0025 124.448 83.0248 124.494 83.0693C124.541 83.1138 124.565 83.1673 124.565 83.2298C124.565 83.2923 124.541 83.3458 124.494 83.3903C124.448 83.4348 124.392 83.4571 124.327 83.4571ZM125.105 86.8207V83.8207H125.429V84.1673H125.469C125.494 84.1294 125.528 84.0811 125.571 84.0224C125.616 83.9628 125.679 83.9097 125.762 83.8633C125.845 83.816 125.958 83.7923 126.1 83.7923C126.283 83.7923 126.445 83.8382 126.585 83.9301C126.726 84.0219 126.835 84.1522 126.914 84.3207C126.992 84.4893 127.031 84.6881 127.031 84.9173C127.031 85.1484 126.992 85.3487 126.914 85.5182C126.835 85.6867 126.726 85.8174 126.587 85.9102C126.448 86.0021 126.287 86.048 126.105 86.048C125.965 86.048 125.853 86.0248 125.769 85.9784C125.684 85.931 125.619 85.8775 125.574 85.8179C125.529 85.7573 125.494 85.7071 125.469 85.6673H125.441V86.8207H125.105ZM125.435 84.9116C125.435 85.0764 125.459 85.2218 125.507 85.3477C125.556 85.4727 125.626 85.5707 125.719 85.6417C125.812 85.7118 125.925 85.7469 126.06 85.7469C126.2 85.7469 126.317 85.7099 126.411 85.6361C126.505 85.5612 126.576 85.4609 126.624 85.3349C126.672 85.208 126.696 85.0669 126.696 84.9116C126.696 84.7582 126.673 84.62 126.625 84.4969C126.579 84.3728 126.508 84.2748 126.414 84.2028C126.32 84.1299 126.202 84.0934 126.06 84.0934C125.923 84.0934 125.809 84.128 125.716 84.1971C125.623 84.2653 125.553 84.361 125.506 84.4841C125.458 84.6062 125.435 84.7487 125.435 84.9116ZM127.787 86.0253C127.717 86.0253 127.657 86.0002 127.607 85.95C127.557 85.8998 127.531 85.8397 127.531 85.7696C127.531 85.6995 127.557 85.6394 127.607 85.5892C127.657 85.539 127.717 85.5139 127.787 85.5139C127.857 85.5139 127.917 85.539 127.967 85.5892C128.018 85.6394 128.043 85.6995 128.043 85.7696C128.043 85.816 128.031 85.8586 128.007 85.8974C127.985 85.9362 127.954 85.9675 127.915 85.9912C127.877 86.0139 127.834 86.0253 127.787 86.0253ZM130.19 84.3094L129.889 84.3946C129.87 84.3444 129.842 84.2956 129.805 84.2483C129.769 84.2 129.72 84.1602 129.657 84.129C129.595 84.0977 129.515 84.0821 129.417 84.0821C129.284 84.0821 129.172 84.1129 129.083 84.1744C128.995 84.235 128.951 84.3122 128.951 84.4059C128.951 84.4893 128.981 84.5551 129.042 84.6034C129.103 84.6517 129.197 84.6919 129.326 84.7241L129.65 84.8037C129.845 84.851 129.99 84.9235 130.086 85.021C130.182 85.1176 130.23 85.2421 130.23 85.3946C130.23 85.5196 130.194 85.6313 130.122 85.7298C130.051 85.8283 129.951 85.9059 129.823 85.9628C129.695 86.0196 129.547 86.048 129.377 86.048C129.155 86.048 128.971 85.9997 128.825 85.9031C128.679 85.8065 128.587 85.6654 128.548 85.4798L128.866 85.4003C128.896 85.5177 128.954 85.6058 129.038 85.6645C129.123 85.7232 129.234 85.7525 129.372 85.7525C129.528 85.7525 129.652 85.7194 129.744 85.6531C129.837 85.5859 129.883 85.5054 129.883 85.4116C129.883 85.3359 129.856 85.2724 129.803 85.2213C129.75 85.1692 129.669 85.1304 129.559 85.1048L129.195 85.0196C128.996 84.9722 128.849 84.8988 128.755 84.7994C128.662 84.699 128.616 84.5736 128.616 84.423C128.616 84.2999 128.65 84.191 128.72 84.0963C128.79 84.0016 128.885 83.9272 129.005 83.8733C129.126 83.8193 129.264 83.7923 129.417 83.7923C129.633 83.7923 129.802 83.8397 129.926 83.9344C130.05 84.029 130.138 84.154 130.19 84.3094ZM131.621 86.048C131.424 86.048 131.251 86.0011 131.102 85.9074C130.954 85.8136 130.839 85.6825 130.755 85.5139C130.673 85.3453 130.632 85.1484 130.632 84.923C130.632 84.6957 130.673 84.4973 130.755 84.3278C130.839 84.1583 130.954 84.0267 131.102 83.9329C131.251 83.8392 131.424 83.7923 131.621 83.7923C131.818 83.7923 131.99 83.8392 132.138 83.9329C132.286 84.0267 132.402 84.1583 132.484 84.3278C132.568 84.4973 132.609 84.6957 132.609 84.923C132.609 85.1484 132.568 85.3453 132.484 85.5139C132.402 85.6825 132.286 85.8136 132.138 85.9074C131.99 86.0011 131.818 86.048 131.621 86.048ZM131.621 85.7469C131.77 85.7469 131.893 85.7085 131.99 85.6318C132.086 85.5551 132.158 85.4542 132.204 85.3292C132.251 85.2042 132.274 85.0688 132.274 84.923C132.274 84.7772 132.251 84.6413 132.204 84.5153C132.158 84.3894 132.086 84.2876 131.99 84.2099C131.893 84.1323 131.77 84.0934 131.621 84.0934C131.471 84.0934 131.348 84.1323 131.251 84.2099C131.155 84.2876 131.083 84.3894 131.037 84.5153C130.99 84.6413 130.967 84.7772 130.967 84.923C130.967 85.0688 130.99 85.2042 131.037 85.3292C131.083 85.4542 131.155 85.5551 131.251 85.6318C131.348 85.7085 131.471 85.7469 131.621 85.7469ZM134.007 86.048C133.803 86.048 133.627 85.9997 133.479 85.9031C133.331 85.8065 133.217 85.6735 133.138 85.504C133.058 85.3344 133.019 85.1408 133.019 84.923C133.019 84.7014 133.059 84.5058 133.141 84.3363C133.223 84.1659 133.338 84.0328 133.485 83.9372C133.632 83.8406 133.805 83.7923 134.002 83.7923C134.155 83.7923 134.293 83.8207 134.416 83.8775C134.539 83.9344 134.64 84.0139 134.719 84.1162C134.798 84.2184 134.846 84.3378 134.865 84.4741H134.53C134.504 84.3747 134.448 84.2866 134.36 84.2099C134.272 84.1323 134.155 84.0934 134.007 84.0934C133.877 84.0934 133.762 84.1275 133.664 84.1957C133.566 84.2629 133.49 84.3581 133.435 84.4812C133.381 84.6034 133.354 84.7469 133.354 84.9116C133.354 85.0802 133.38 85.227 133.433 85.352C133.487 85.477 133.563 85.574 133.661 85.6432C133.759 85.7123 133.875 85.7469 134.007 85.7469C134.094 85.7469 134.173 85.7317 134.244 85.7014C134.316 85.6711 134.376 85.6275 134.425 85.5707C134.474 85.5139 134.509 85.4457 134.53 85.3662H134.865C134.846 85.495 134.799 85.611 134.725 85.7142C134.651 85.8165 134.553 85.8979 134.431 85.9585C134.309 86.0182 134.168 86.048 134.007 86.048ZM111.574 91.0025V88.8207H111.909V91.0025H111.574ZM111.744 88.4571C111.679 88.4571 111.623 88.4348 111.575 88.3903C111.529 88.3458 111.506 88.2923 111.506 88.2298C111.506 88.1673 111.529 88.1138 111.575 88.0693C111.623 88.0248 111.679 88.0025 111.744 88.0025C111.81 88.0025 111.866 88.0248 111.912 88.0693C111.959 88.1138 111.983 88.1673 111.983 88.2298C111.983 88.2923 111.959 88.3458 111.912 88.3903C111.866 88.4348 111.81 88.4571 111.744 88.4571ZM113.165 91.0537C113.027 91.0537 112.902 91.0276 112.789 90.9755C112.676 90.9225 112.587 90.8463 112.52 90.7469C112.454 90.6465 112.421 90.5253 112.421 90.3832C112.421 90.2582 112.446 90.1569 112.495 90.0792C112.544 90.0006 112.61 89.9391 112.692 89.8946C112.775 89.8501 112.866 89.8169 112.965 89.7951C113.065 89.7724 113.166 89.7544 113.268 89.7412C113.4 89.7241 113.508 89.7113 113.59 89.7028C113.673 89.6933 113.734 89.6777 113.772 89.6559C113.811 89.6342 113.83 89.5963 113.83 89.5423V89.5309C113.83 89.3908 113.792 89.2819 113.715 89.2042C113.639 89.1266 113.524 89.0878 113.37 89.0878C113.21 89.0878 113.084 89.1228 112.993 89.1929C112.903 89.2629 112.839 89.3378 112.802 89.4173L112.483 89.3037C112.54 89.1711 112.616 89.0679 112.711 88.994C112.806 88.9192 112.911 88.8671 113.023 88.8378C113.137 88.8075 113.249 88.7923 113.358 88.7923C113.429 88.7923 113.509 88.8008 113.6 88.8179C113.692 88.834 113.78 88.8676 113.866 88.9187C113.952 88.9699 114.023 89.047 114.08 89.1503C114.137 89.2535 114.165 89.3917 114.165 89.565V91.0025H113.83V90.7071H113.813C113.79 90.7544 113.752 90.8051 113.699 90.8591C113.646 90.913 113.576 90.959 113.488 90.9969C113.4 91.0347 113.292 91.0537 113.165 91.0537ZM113.216 90.7525C113.349 90.7525 113.461 90.7265 113.552 90.6744C113.644 90.6223 113.713 90.5551 113.759 90.4727C113.806 90.3903 113.83 90.3037 113.83 90.2128V89.9059C113.816 89.923 113.785 89.9386 113.736 89.9528C113.689 89.9661 113.634 89.9779 113.572 89.9883C113.51 89.9978 113.45 90.0063 113.391 90.0139C113.333 90.0205 113.287 90.0262 113.251 90.0309C113.163 90.0423 113.082 90.0608 113.006 90.0863C112.931 90.111 112.871 90.1484 112.824 90.1986C112.779 90.2478 112.756 90.315 112.756 90.4003C112.756 90.5167 112.799 90.6048 112.885 90.6645C112.973 90.7232 113.083 90.7525 113.216 90.7525ZM115.112 88.0934V91.0025H114.777V88.0934H115.112Z" fill="white"/>
</svg>
