<svg width="31" height="32" viewBox="0 0 31 32" fill="none" xmlns="http://www.w3.org/2000/svg">
<g id="Front_tire">
<path id="Vector" d="M15.7605 31.434C23.9228 31.434 30.5396 24.6142 30.5396 16.2016C30.5396 7.7889 23.9228 0.969086 15.7605 0.969086C7.59829 0.969086 0.981491 7.7889 0.981491 16.2016C0.981491 24.6142 7.59829 31.434 15.7605 31.434Z" fill="#3F3D56"/>
<path id="Vector_2" d="M5.57689 16.2015C5.57689 10.4126 10.1439 5.70544 15.7605 5.70544C21.3771 5.70544 25.9442 10.4126 25.9442 16.2015C25.9442 21.9905 21.3771 26.6976 15.7605 26.6976C10.1439 26.6976 5.57689 21.9905 5.57689 16.2015ZM5.80382 16.2015C5.80382 21.8735 10.2574 26.4637 15.7605 26.4637C21.2637 26.4637 25.7172 21.8735 25.7172 16.2015C25.7172 10.5296 21.2637 5.93935 15.7605 5.93935C10.2574 5.93935 5.80382 10.5296 5.80382 16.2015Z" fill="white"/>
<path id="Vector_3" d="M7.02359 16.2015C7.02359 21.1718 10.9382 25.2065 15.7605 25.2065C20.5829 25.2065 24.4975 21.1718 24.4975 16.2015C24.4975 11.2312 20.5829 7.19653 15.7605 7.19653C10.9382 7.19653 7.02359 11.2312 7.02359 16.2015ZM21.4339 14.038L19.8737 15.0905L19.278 14.1549L21.4339 14.038ZM19.0794 19.3299L19.5049 18.2773L20.8098 20.0316L19.0794 19.3299ZM15.1081 22.8968L16.186 20.9964V22.8968H15.1081ZM15.1081 11.8745L16.186 9.97405V11.8745H15.1081ZM10.2858 20.0608L11.5906 18.3066L12.0161 19.3591L10.2858 20.0608ZM9.63332 14.038L11.7608 14.1257L11.1651 15.0613L9.63332 14.038Z" fill="#E6E6E6"/>
</g>
</svg>
