<svg width="28" height="24" viewBox="0 0 28 24" fill="none" xmlns="http://www.w3.org/2000/svg">
<path fill-rule="evenodd" clip-rule="evenodd" d="M8.12542 2.3125C3.94528 2.3125 0.564453 5.31208 0.564453 9.02083C0.564453 13.0171 5.33866 18.5275 7.30451 20.6262C7.73657 21.0863 8.52507 21.0863 8.95712 20.6262C10.9122 18.5275 15.6864 13.0171 15.6864 9.02083C15.6864 5.31208 12.3056 2.3125 8.12542 2.3125ZM2.72482 9.02018C2.72482 6.37518 5.14433 4.22852 8.12551 4.22852C11.1067 4.22852 13.5262 6.37518 13.5262 9.02018C13.5262 11.7802 10.4154 15.9106 8.12551 18.4885C5.87882 15.9298 2.72482 11.7514 2.72482 9.02018ZM5.42507 9.02083C5.42507 10.3433 6.63483 11.4167 8.12542 11.4167C9.61601 11.4167 10.8258 10.3433 10.8258 9.02083C10.8258 7.69833 9.61601 6.625 8.12542 6.625C6.63483 6.625 5.42507 7.69833 5.42507 9.02083Z" fill="#37474F"/>
<mask id="mask0_1115_30849" style="mask-type:luminance" maskUnits="userSpaceOnUse" x="0" y="2" width="16" height="19">
<path fill-rule="evenodd" clip-rule="evenodd" d="M8.12542 2.3125C3.94528 2.3125 0.564453 5.31208 0.564453 9.02083C0.564453 13.0171 5.33866 18.5275 7.30451 20.6262C7.73657 21.0863 8.52507 21.0863 8.95712 20.6262C10.9122 18.5275 15.6864 13.0171 15.6864 9.02083C15.6864 5.31208 12.3056 2.3125 8.12542 2.3125ZM2.72482 9.02018C2.72482 6.37518 5.14433 4.22852 8.12551 4.22852C11.1067 4.22852 13.5262 6.37518 13.5262 9.02018C13.5262 11.7802 10.4154 15.9106 8.12551 18.4885C5.87882 15.9298 2.72482 11.7514 2.72482 9.02018ZM5.42507 9.02083C5.42507 10.3433 6.63483 11.4167 8.12542 11.4167C9.61601 11.4167 10.8258 10.3433 10.8258 9.02083C10.8258 7.69833 9.61601 6.625 8.12542 6.625C6.63483 6.625 5.42507 7.69833 5.42507 9.02083Z" fill="white"/>
</mask>
<g mask="url(#mask0_1115_30849)">
</g>
</svg>
