<svg width="36" height="36" viewBox="0 0 36 36" fill="none" xmlns="http://www.w3.org/2000/svg">
<g id="gis:car" clip-path="url(#clip0_5_189)">
<g id="gisCar0">
<path id="gisCar1" d="M17.7729 4.04181C13.5799 3.98034 7.75551 4.07018 6.55645 7.29143L3.61014 14.2051C3.47928 14.0558 3.30801 13.9477 3.11701 13.8937L1.93079 13.56C1.80036 13.523 1.66391 13.5121 1.52926 13.5279C1.39461 13.5438 1.26442 13.5861 1.14617 13.6524C1.02792 13.7187 0.923925 13.8077 0.840168 13.9144C0.75641 14.021 0.694535 14.1431 0.658096 14.2737L0.0393156 16.4711C0.00230675 16.6016 -0.00856755 16.7381 0.00731791 16.8727C0.0232034 17.0074 0.0655354 17.1376 0.131883 17.2559C0.19823 17.3741 0.287285 17.4781 0.393934 17.5618C0.500583 17.6456 0.622726 17.7074 0.753346 17.7438L1.93991 18.0775C1.97976 18.0887 2.01894 18.0924 2.0588 18.0985C1.83216 18.6636 1.69064 19.285 1.69064 19.6549V27.6899C1.69064 28.102 1.8629 28.2925 2.13784 28.382V30.5227C2.13748 30.7127 2.17464 30.9009 2.24718 31.0765C2.31973 31.252 2.42623 31.4116 2.56057 31.5459C2.69492 31.6802 2.85447 31.7867 3.03006 31.8592C3.20565 31.9317 3.39383 31.9688 3.5838 31.9684H7.46368C7.65362 31.9687 7.84177 31.9316 8.01732 31.8591C8.19287 31.7865 8.35238 31.6801 8.48668 31.5458C8.62099 31.4114 8.72746 31.2519 8.79999 31.0764C8.87251 30.9008 8.90966 30.7127 8.9093 30.5227V28.4604H27.0911V30.5227C27.0908 30.7127 27.128 30.9009 27.2006 31.0765C27.2731 31.2521 27.3797 31.4116 27.514 31.5459C27.6484 31.6802 27.808 31.7867 27.9836 31.8592C28.1592 31.9317 28.3474 31.9688 28.5374 31.9684H32.4166C32.6066 31.9688 32.7948 31.9317 32.9705 31.8593C33.1461 31.7868 33.3057 31.6803 33.4401 31.546C33.5746 31.4117 33.6811 31.2522 33.7537 31.0766C33.8263 30.901 33.8635 30.7128 33.8632 30.5227V28.382C34.1378 28.2925 34.3097 28.1017 34.3097 27.6896V19.6552C34.3097 19.2854 34.1682 18.6639 33.9416 18.0988C33.9814 18.0927 34.0206 18.0887 34.0605 18.0779L35.2474 17.7442C35.378 17.7077 35.5001 17.6459 35.6067 17.5621C35.7133 17.4783 35.8023 17.3744 35.8686 17.2561C35.9349 17.1378 35.9772 17.0077 35.9931 16.873C36.009 16.7384 35.9981 16.6019 35.9611 16.4715L35.343 14.274C35.3064 14.1434 35.2445 14.0213 35.1607 13.9146C35.0769 13.808 34.9728 13.719 34.8545 13.6527C34.7362 13.5864 34.606 13.5441 34.4713 13.5282C34.3366 13.5124 34.2001 13.5233 34.0696 13.5603L32.8834 13.894C32.6924 13.948 32.5211 14.0562 32.3902 14.2054L29.4439 7.29176C28.1587 4.02188 21.9659 4.10396 17.7729 4.04248V4.04181ZM29.7817 14.6418C29.8513 14.8492 29.6425 14.987 29.424 14.9998C29.424 14.9998 28.7096 15.0606 27.7247 15.14C26.9752 13.3887 25.2334 12.1549 23.2156 12.1549C21.0016 12.1549 19.1216 13.6417 18.5187 15.6663C18.3515 15.6686 18.1573 15.6754 18.0019 15.6754C14.1875 15.6754 6.57638 14.9998 6.57638 14.9998C6.35784 14.987 6.14911 14.8492 6.21869 14.6418C9.15013 5.7063 9.23727 6.37778 17.8377 6.47167C26.4385 6.56557 26.4885 5.9272 29.7817 14.6418ZM23.2156 13.8437C23.7466 13.8418 24.2698 13.9722 24.7379 14.223C25.206 14.4739 25.6042 14.8373 25.8967 15.2805C24.1742 15.4082 22.1915 15.5389 20.3439 15.6149C20.6097 15.0812 21.0195 14.6325 21.527 14.3195C22.0345 14.0065 22.6194 13.8417 23.2156 13.8437ZM3.38688 16.7437C3.41289 16.7819 3.43822 16.8204 3.46693 16.8579H3.35547L3.38688 16.7437ZM5.29288 18.9878C6.04744 18.9753 10.0982 20.3389 10.0982 20.3389C10.6039 20.4811 11.0494 21.4376 11.0467 21.9632C11.0392 23.733 6.47133 23.119 4.61735 23.1261C4.4927 23.1264 4.36921 23.1021 4.25398 23.0545C4.13875 23.007 4.03405 22.9371 3.94589 22.849C3.85773 22.7609 3.78785 22.6562 3.74026 22.541C3.69267 22.4258 3.66831 22.3023 3.66858 22.1776V19.9366C3.66858 19.411 4.53832 19.0003 5.29288 18.9878ZM30.7082 18.9878C31.4627 19.0003 32.3325 19.411 32.3325 19.9366V22.1776C32.3327 22.3023 32.3084 22.4258 32.2608 22.541C32.2132 22.6562 32.1433 22.7609 32.0552 22.849C31.967 22.9371 31.8623 23.007 31.7471 23.0545C31.6318 23.1021 31.5084 23.1264 31.3837 23.1261C29.5294 23.119 24.9618 23.733 24.9544 21.9632C24.9517 21.4376 25.3969 20.4811 25.9028 20.3389C25.9028 20.3389 29.9536 18.9753 30.7082 18.9878Z" fill="#0E1800"/>
</g>
</g>
<defs>
<clipPath id="clip0_5_189">
<rect width="36" height="36" fill="white"/>
</clipPath>
</defs>
</svg>
