<svg width="38" height="100" viewBox="0 0 38 100" fill="none" xmlns="http://www.w3.org/2000/svg">
<rect width="38" height="100" fill="#C8C8C8"/>
<g id="sign-in and sign-up">
<g id="Driver app landing page">
<g clip-path="url(#clip0_1_16573)">
<rect x="-180" y="-287" width="360" height="800" rx="20" fill="white"/>
<rect id="Rectangle 17459" x="-181" y="-239" width="362" height="807" rx="5" fill="#F3F3F3"/>
<g id="Delivery guy 1">
<g id="Group">
<g id="Group_2">
<path id="Vector" d="M-89.8689 79.2313L-92.7907 61.6306C-94.0956 53.8243 -88.4789 46.5736 -80.7916 46.1643L-39.0642 43.9422L-29.1075 27.014C-27.7743 24.7628 -25.4198 23.3886 -22.8952 23.3886H7.08839C9.44282 23.3886 11.4285 25.2013 11.7405 27.5988L12.5064 41.1355L87.2526 41.3694L96.6703 73.3254L87.9334 72.8869L88.3873 82.5643L76.9839 83.0321L73.1827 71.9513C72.4736 69.8755 69.3249 67.5073 66.0627 65.5484C58.7441 61.1336 49.3547 62.537 43.8232 69.1738C42.5184 70.7233 41.6106 72.3606 41.3553 73.8809L39.625 84.2016L-44.0851 82.8274L-55.063 67.0102C-58.2968 63.3848 -73.6148 62.0399 -74.9764 67.0102L-83.2595 79.5821L-89.8689 79.2313Z" fill="#ED1C24"/>
<path id="Vector_2" d="M1.10302 33.7093L3.57092 45.6672L-27.7743 46.3689L-21.1648 31.7212C-20.5691 30.4055 -19.2359 29.5576 -17.8175 29.6453L-2.81158 30.3178C-0.882645 30.4055 0.705885 31.8089 1.10302 33.7093Z" fill="white"/>
<path id="Vector_3" d="M3.91132 49.9358H-4.59869V51.7778H3.91132V49.9358Z" fill="#3F3D56"/>
<path id="Vector_4" d="M-108.931 99.5218C-108.931 99.6679 -108.733 99.7849 -108.477 99.7849H113.492C113.747 99.7849 113.946 99.6679 113.946 99.5218C113.946 99.3756 113.747 99.2586 113.492 99.2586H-108.449C-108.704 99.2294 -108.931 99.3463 -108.931 99.5218Z" fill="#CCCCCC"/>
<g id="Group_3">
<g id="Group_4">
<path id="Vector_5" d="M21.0164 97.7675H24.1084L25.6118 85.4295H21.0164V97.7675Z" fill="#CF9E76"/>
<path id="Vector_6" d="M31.6539 97.7091C31.739 97.8845 31.7958 98.4107 31.7958 98.6154C31.7958 99.2294 31.3135 99.6972 30.7462 99.6972H21.1299C20.7328 99.6972 20.4207 99.3756 20.4207 98.9663V98.5569C20.4207 98.5569 19.9385 97.329 20.9313 95.7794C20.9313 95.7794 22.1511 96.9781 23.9666 95.107L24.5055 94.1129L28.3918 97.0366L30.5476 97.2997C31.0015 97.3582 31.427 97.2705 31.6539 97.7091Z" fill="#2F2E41"/>
</g>
<g id="Group_5">
<path id="Vector_7" d="M7.06003 97.7675H10.152L11.6271 85.4295H7.06003V97.7675Z" fill="#CF9E76"/>
<path id="Vector_8" d="M17.6975 97.7091C17.7826 97.8845 17.8394 98.4107 17.8394 98.6154C17.8394 99.2294 17.3571 99.6972 16.7898 99.6972H7.17348C6.77635 99.6972 6.46432 99.3756 6.46432 98.9663V98.5569C6.46432 98.5569 5.98208 97.329 6.97491 95.7794C6.97491 95.7794 8.19468 96.9781 10.0102 95.107L10.5491 94.1129L14.4354 97.0366L16.5912 97.2997C17.0451 97.3582 17.4422 97.2705 17.6975 97.7091Z" fill="#2F2E41"/>
</g>
<path id="Vector_9" d="M20.5342 13.4188L21.1015 19.0908L14.2368 18.4768L15.3998 13.2142L20.5342 13.4188Z" fill="#FFB6B6"/>
<path id="Vector_10" d="M20.5342 13.4188L21.1015 19.0908L14.2368 18.4768L15.3998 13.2142L20.5342 13.4188Z" fill="#B08874"/>
<path id="Vector_11" d="M18.0663 14.1205C20.5573 14.1205 22.5766 12.0392 22.5766 9.47183C22.5766 6.90444 20.5573 4.82315 18.0663 4.82315C15.5753 4.82315 13.556 6.90444 13.556 9.47183C13.556 12.0392 15.5753 14.1205 18.0663 14.1205Z" fill="#CF9E76"/>
<path id="Vector_12" d="M21.0164 16.7811L28.5903 21.3421L26.0941 33.6801L27.7961 50.3159L26.6047 91.043L19.3428 90.2244L18.35 55.5786L12.6482 91.4523H5.58496L6.74798 52.7426L10.2938 36.3114L8.13796 18.4768L14.719 16.3718L21.0164 16.7811Z" fill="#2F2E41"/>
<path id="Vector_13" d="M22.6333 9.00404C23.3425 9.03327 24.3353 7.24982 24.2502 5.67102C24.1368 2.89351 20.676 -0.468747 17.0167 0.0867557C13.3858 0.613021 10.7477 4.76467 11.5987 7.74685C11.7405 8.30235 12.1944 9.38412 13.6411 10.3489C13.9531 9.12098 14.2935 8.12693 14.5772 7.396C15.1445 5.93415 15.3998 5.67102 15.6835 5.52483C16.3643 5.20323 16.7047 5.75873 18.0379 5.78797C19.4846 5.78797 19.9952 5.11552 20.5625 5.52483C20.9881 5.8172 20.8178 6.22652 21.3568 7.36677C21.6972 8.06845 22.1227 8.9748 22.6333 9.00404Z" fill="#2F2E41"/>
<path id="uuid-2f48dadd-bd50-474e-b6bc-efb589732da4-63" d="M24.6757 46.6613C23.7396 47.6846 23.4843 49.0295 24.1084 49.6435C24.7325 50.2574 26.0373 49.9358 26.9734 48.8833C27.3706 48.474 27.6542 47.977 27.7961 47.4507L31.739 43.0359L29.6966 41.1647L26.009 45.7257C25.5267 45.9304 25.0445 46.252 24.6757 46.6613Z" fill="#FFB6B6"/>
<path id="Vector_14" d="M28.5052 21.2251L35.1714 32.9199L36.1642 38.2703L29.725 46.6613L27.0302 43.0944L30.2356 38.2703L25.0445 28.8559L28.5052 21.2251Z" fill="#2F2E41"/>
<g id="Group_6">
<path id="Vector_15" d="M9.78322 45.5795V31.7796C9.78322 29.6746 11.4569 27.9788 13.4709 27.9788H33.9233C35.9657 27.9788 37.6109 29.7038 37.6109 31.7796V45.5795C37.6109 47.6846 35.9373 49.3803 33.9233 49.3803H13.4709C11.4285 49.4095 9.78322 47.6846 9.78322 45.5795Z" fill="#EACC83"/>
<path id="Vector_16" d="M26.7749 34.8495H19.7116V36.6622H26.7749V34.8495Z" fill="#3F3D56"/>
<path id="Vector_17" d="M26.2359 45.638H20.4775V49.2926H26.2359V45.638Z" fill="#3F3D56"/>
<path id="Vector_18" d="M26.4912 28.0958H20.7327V31.7504H26.4912V28.0958Z" fill="#3F3D56"/>
</g>
<g id="Group_7">
<path id="uuid-f6ce86b9-37cf-4878-a476-c93c5a2c7b27-64" d="M11.854 44.03C12.7901 45.0533 13.0454 46.3982 12.4213 47.0121C11.7973 47.6261 10.4924 47.3045 9.55629 46.252C9.15916 45.8427 8.87549 45.3456 8.73365 44.8194L4.79069 40.4046L6.83308 38.5334L10.5208 43.0944C11.003 43.299 11.4569 43.6207 11.854 44.03Z" fill="#CF9E76"/>
<path id="Vector_19" d="M8.02449 18.5938L1.35832 30.2886L0.365486 35.6389L6.77637 44.03L9.49956 40.463L6.29413 35.6389L11.4569 26.2246L8.02449 18.5938Z" fill="#2F2E41"/>
</g>
</g>
</g>
</g>
</g>
</g>
</g>
</g>
<defs>
<clipPath id="clip0_1_16573">
<rect x="-180" y="-287" width="360" height="800" rx="20" fill="white"/>
</clipPath>
</defs>
</svg>
