<svg width="50" height="47" viewBox="0 0 50 47" fill="none" xmlns="http://www.w3.org/2000/svg">
<g id="Group 512307">
<g id="&#240;&#159;&#166;&#134; icon &#34;photo camera&#34;">
<path id="Vector" d="M25 29.2741C28.4518 29.2741 31.25 26.6528 31.25 23.4193C31.25 20.1857 28.4518 17.5645 25 17.5645C21.5482 17.5645 18.75 20.1857 18.75 23.4193C18.75 26.6528 21.5482 29.2741 25 29.2741Z" fill="#787A82"/>
<path id="Vector_2" d="M41.6666 7.80408H35.0625L32.4791 5.16942C31.7083 4.36926 30.5833 3.90088 29.4166 3.90088H20.5833C19.4166 3.90088 18.2916 4.36926 17.5 5.16942L14.9375 7.80408H8.33329C6.04163 7.80408 4.16663 9.56052 4.16663 11.7073V35.1265C4.16663 37.2732 6.04163 39.0297 8.33329 39.0297H41.6666C43.9583 39.0297 45.8333 37.2732 45.8333 35.1265V11.7073C45.8333 9.56052 43.9583 7.80408 41.6666 7.80408ZM25 33.1749C19.25 33.1749 14.5833 28.8033 14.5833 23.4169C14.5833 18.0305 19.25 13.6589 25 13.6589C30.75 13.6589 35.4166 18.0305 35.4166 23.4169C35.4166 28.8033 30.75 33.1749 25 33.1749Z" fill="#787A82"/>
</g>
</g>
</svg>
