<svg width="37" height="36" viewBox="0 0 37 36" fill="none" xmlns="http://www.w3.org/2000/svg">
<g id="mdi:language">
<rect width="36.5878" height="36" transform="translate(0.244873)" fill="#292929"/>
<path id="Vector" d="M20.0517 21.3375L17.1182 18.2L17.1529 18.1625C19.1095 15.8089 20.5713 13.0241 21.4376 10H24.8215V7.5H16.7371V5H14.4273V7.5H6.34283V10H19.2433C18.4695 12.4 17.2452 14.6875 15.5822 16.6875C14.5081 15.4 13.6188 13.9875 12.9143 12.5H10.6045C11.4476 14.5375 12.6025 16.4625 14.0461 18.2L8.1676 24.475L9.80758 26.25L15.5822 20L19.174 23.8875L20.0517 21.3375ZM26.5539 15H24.244L19.0469 30H21.3568L22.6503 26.25H28.1361L29.4412 30H31.751L26.5539 15ZM23.528 23.75L25.399 18.3375L27.2699 23.75H23.528Z" fill="white"/>
</g>
</svg>
