<svg width="36" height="37" viewBox="0 0 36 37" fill="none" xmlns="http://www.w3.org/2000/svg">
<g id="ph:question-fill">
<path id="Vector" d="M18 3.875C15.1075 3.875 12.2799 4.73274 9.87479 6.33976C7.46972 7.94677 5.5952 10.2309 4.48827 12.9033C3.38134 15.5756 3.09171 18.5162 3.65602 21.3532C4.22033 24.1902 5.61323 26.7961 7.65857 28.8414C9.70391 30.8868 12.3098 32.2797 15.1468 32.844C17.9838 33.4083 20.9244 33.1187 23.5968 32.0117C26.2691 30.9048 28.5532 29.0303 30.1602 26.6252C31.7673 24.2201 32.625 21.3926 32.625 18.5C32.6209 14.6225 31.0788 10.9049 28.3369 8.16309C25.5951 5.42125 21.8775 3.87909 18 3.875ZM18 27.5C17.6663 27.5 17.34 27.401 17.0625 27.2156C16.785 27.0302 16.5687 26.7666 16.441 26.4583C16.3132 26.1499 16.2798 25.8106 16.3449 25.4833C16.41 25.1559 16.5708 24.8553 16.8068 24.6193C17.0428 24.3833 17.3434 24.2225 17.6708 24.1574C17.9981 24.0923 18.3374 24.1257 18.6458 24.2535C18.9541 24.3812 19.2177 24.5975 19.4031 24.875C19.5885 25.1525 19.6875 25.4787 19.6875 25.8125C19.6875 26.2601 19.5097 26.6893 19.1932 27.0057C18.8768 27.3222 18.4476 27.5 18 27.5ZM19.125 20.6488V20.75C19.125 21.0484 19.0065 21.3345 18.7955 21.5455C18.5845 21.7565 18.2984 21.875 18 21.875C17.7016 21.875 17.4155 21.7565 17.2045 21.5455C16.9935 21.3345 16.875 21.0484 16.875 20.75V19.625C16.875 19.3266 16.9935 19.0405 17.2045 18.8295C17.4155 18.6185 17.7016 18.5 18 18.5C19.8605 18.5 21.375 17.2344 21.375 15.6875C21.375 14.1406 19.8605 12.875 18 12.875C16.1395 12.875 14.625 14.1406 14.625 15.6875V16.25C14.625 16.5484 14.5065 16.8345 14.2955 17.0455C14.0845 17.2565 13.7984 17.375 13.5 17.375C13.2016 17.375 12.9155 17.2565 12.7045 17.0455C12.4935 16.8345 12.375 16.5484 12.375 16.25V15.6875C12.375 12.8961 14.8978 10.625 18 10.625C21.1022 10.625 23.625 12.8961 23.625 15.6875C23.625 18.1316 21.69 20.1777 19.125 20.6488Z" fill="#262626"/>
</g>
</svg>
