<svg width="202" height="202" viewBox="0 0 202 202" fill="none" xmlns="http://www.w3.org/2000/svg">
<mask id="path-1-inside-1_1244_11336" fill="white">
<path d="M0 3.36689C0 1.50741 1.50741 0 3.36689 0H54.6464C56.5059 0 58.0133 1.50741 58.0133 3.36689V54.6464C58.0133 56.5059 56.5059 58.0133 54.6464 58.0133H3.36689C1.50741 58.0133 0 56.5059 0 54.6464V3.36689Z"/>
</mask>
<path d="M-3.36689 3.36689C-3.36689 -0.352075 -0.352075 -3.36689 3.36689 -3.36689H51.2795C54.9985 -3.36689 58.0133 -0.352075 58.0133 3.36689C58.0133 3.36689 56.5059 3.36689 54.6464 3.36689H3.36689H-3.36689ZM58.0133 58.0133H0H58.0133ZM3.36689 58.0133C-0.352075 58.0133 -3.36689 54.9985 -3.36689 51.2795V3.36689C-3.36689 -0.352075 -0.352075 -3.36689 3.36689 -3.36689V3.36689V54.6464C3.36689 56.5059 3.36689 58.0133 3.36689 58.0133ZM58.0133 0V58.0133V0Z" fill="#B0B0B0" mask="url(#path-1-inside-1_1244_11336)"/>
<mask id="path-3-inside-2_1244_11336" fill="white">
<path d="M201.34 3.36689C201.34 1.50741 199.833 0 197.973 0H146.694C144.834 0 143.327 1.50741 143.327 3.36689V54.6464C143.327 56.5059 144.834 58.0133 146.694 58.0133H197.973C199.833 58.0133 201.34 56.5059 201.34 54.6464V3.36689Z"/>
</mask>
<path d="M204.707 3.36689C204.707 -0.352075 201.692 -3.36689 197.973 -3.36689H150.061C146.342 -3.36689 143.327 -0.352075 143.327 3.36689C143.327 3.36689 144.834 3.36689 146.694 3.36689H197.973H204.707ZM143.327 58.0133H201.34H143.327ZM197.973 58.0133C201.692 58.0133 204.707 54.9985 204.707 51.2795V3.36689C204.707 -0.352075 201.692 -3.36689 197.973 -3.36689V3.36689V54.6464C197.973 56.5059 197.973 58.0133 197.973 58.0133ZM143.327 0V58.0133V0Z" fill="#B0B0B0" mask="url(#path-3-inside-2_1244_11336)"/>
<mask id="path-5-inside-3_1244_11336" fill="white">
<path d="M0 197.973C0 199.832 1.50741 201.34 3.36689 201.34H54.6464C56.5059 201.34 58.0133 199.832 58.0133 197.973V146.693C58.0133 144.834 56.5059 143.327 54.6464 143.327H3.36689C1.50741 143.327 0 144.834 0 146.693V197.973Z"/>
</mask>
<path d="M-3.36689 197.973C-3.36689 201.692 -0.352075 204.707 3.36689 204.707H51.2795C54.9985 204.707 58.0133 201.692 58.0133 197.973C58.0133 197.973 56.5059 197.973 54.6464 197.973H3.36689H-3.36689ZM58.0133 143.327H0H58.0133ZM3.36689 143.327C-0.352075 143.327 -3.36689 146.341 -3.36689 150.06V197.973C-3.36689 201.692 -0.352075 204.707 3.36689 204.707V197.973V146.693C3.36689 144.834 3.36689 143.327 3.36689 143.327ZM58.0133 201.34V143.327V201.34Z" fill="#B0B0B0" mask="url(#path-5-inside-3_1244_11336)"/>
<mask id="path-7-inside-4_1244_11336" fill="white">
<path d="M201.34 197.973C201.34 199.832 199.833 201.34 197.973 201.34H146.694C144.834 201.34 143.327 199.832 143.327 197.973V146.693C143.327 144.834 144.834 143.327 146.694 143.327H197.973C199.833 143.327 201.34 144.834 201.34 146.693V197.973Z"/>
</mask>
<path d="M204.707 197.973C204.707 201.692 201.692 204.707 197.973 204.707H150.061C146.342 204.707 143.327 201.692 143.327 197.973C143.327 197.973 144.834 197.973 146.694 197.973H197.973H204.707ZM143.327 143.327H201.34H143.327ZM197.973 143.327C201.692 143.327 204.707 146.341 204.707 150.06V197.973C204.707 201.692 201.692 204.707 197.973 204.707V197.973V146.693C197.973 144.834 197.973 143.327 197.973 143.327ZM143.327 201.34V143.327V201.34Z" fill="#B0B0B0" mask="url(#path-7-inside-4_1244_11336)"/>
</svg>
