<svg width="18" height="19" viewBox="0 0 18 19" fill="none" xmlns="http://www.w3.org/2000/svg">
<path id="Vector" d="M9 18.5094C7.8181 18.5094 6.64778 18.2701 5.55585 17.805C4.46392 17.3399 3.47177 16.6582 2.63604 15.7988C0.948211 14.0632 0 11.7092 0 9.25472C0 6.80021 0.948211 4.44624 2.63604 2.71064C4.32387 0.975048 6.61305 0 9 0C10.1819 0 11.3522 0.23938 12.4442 0.704473C13.5361 1.16957 14.5282 1.85126 15.364 2.71064C16.1997 3.57002 16.8626 4.59026 17.3149 5.71309C17.7672 6.83592 18 8.03937 18 9.25472C18 11.7092 17.0518 14.0632 15.364 15.7988C13.6761 17.5344 11.3869 18.5094 9 18.5094ZM13.5 11.1057L9 6.4783L4.5 11.1057H13.5Z" fill="#ED1641"/>
</svg>
