<svg width="23" height="23" viewBox="0 0 23 23" fill="none" xmlns="http://www.w3.org/2000/svg">
<g id="wpf:past">
<path id="Vector" d="M12.5 0L8.07693 2.65385L12.5 5.30769V3.53846C16.8833 3.53846 20.4615 7.11673 20.4615 11.5C20.4615 15.8833 16.8833 19.4615 12.5 19.4615C8.11673 19.4615 4.53846 15.8833 4.53846 11.5C4.53846 9.33004 5.31958 7.45731 6.75 6.026L5.50623 4.78312C3.75116 6.53731 2.76923 8.89304 2.76923 11.5C2.76923 16.8475 7.1525 21.2308 12.5 21.2308C17.8475 21.2308 22.2308 16.8475 22.2308 11.5C22.2308 6.1525 17.8475 1.76923 12.5 1.76923V0ZM10.6476 5.80573L9.0447 6.57977L11.2837 11.0028C11.2159 11.1601 11.1783 11.3288 11.1731 11.5V11.5557L8.3255 14.4015L9.59847 15.6754L12.446 12.8278H12.5C12.8519 12.8278 13.1894 12.688 13.4383 12.4392C13.6871 12.1903 13.8269 11.8528 13.8269 11.5009C13.8269 10.8905 13.4209 10.3836 12.8592 10.2288L10.6476 5.80573Z" fill="#0E1800"/>
</g>
</svg>
